<?xml version='1.0' encoding='utf-8'?>
<svg xmlns="http://www.w3.org/2000/svg" viewBox="0 0 1891 2364"> <path transform="scale(1.8476)" d="m172.2 386.56c1.145-0.179 2.371-0.397 3.521-0.174 2.049 0.398 3.697 1.665 4.729 3.456 0.981 1.703 1.27 3.922 0.721 5.822-0.759 2.625-2.754 4.074-5.058 5.272-1.028 0.203-1.96 0.389-3.01 0.235-2.113-0.311-3.781-1.564-4.983-3.299-1.177-1.699-1.578-3.858-1.06-5.859 0.718-2.776 2.74-4.181 5.14-5.453z" fill="#F3666D"/> <path transform="scale(1.8476)" d="m113.12 516.98-2.926-8.751c-1.614-3.426-7.375-4.992-10.701-6.333l1.6803-0.655c7.722-3.072 9.189-6.11 12.325-13.344 2.216 3.96 4.66 7.231 7.666 10.626l4.712 3.113c-6.221 2.997-8.608 4.477-10.956 11.196-0.52 1.486-0.981 2.792-1.8 4.148z" fill="#F3666D"/> <path transform="scale(1.8476)" d="m338.48 135.77c4.69 6.802 7.243 9.825 14.703 13.731-8.082 3.247-10.659 7.529-14.688 14.939-1.687-3.779-3.412-8.252-6.804-10.843-2.182-1.667-5.647-2.814-8.189-3.903 3.062-1.557 6.582-3.176 9.1-5.534 2.327-2.179 4.188-5.688 5.878-8.39z" fill="#FAAB4A"/> <path transform="scale(1.8476)" d="m757.6 214.27 2.496 9.244c2.378 6.383 6.847 8.333 12.594 11-3.357 1.69-7.477 3.618-10.018 6.449-1.511 1.682-2.857 6.148-4.588 6.852l-1.172-1.827-0.568-1.038c-0.732-1.263-2.253-4.348-3.3-5.179-3.532-2.804-11.322-4.128-15.794-5.354 5.066-1.147 10.075-2.277 14.729-4.649 3.196-4.707 4.389-10.046 5.621-15.498z" fill="#FAAB4A"/> <path transform="scale(1.8476)" d="m616.12 235.78c-2.258-0.05-4.313 0.103-6.334-1.046l-0.98-6.187c-4.056-1.584-8.166-3.25-11.742-5.765l-0.59-0.42-6.122 4.932c-5.1-3.65-9.189-8.194-12.309-13.602 0.864-2.09 3.554-4.114 5.179-5.706-0.732-1.696-2.584-9.76-3.606-10.504-0.239-0.174-1.839-0.344-2.166-0.407-2.135-0.409-4.149-0.643-6.043-1.766-3.314-4.746-1.056-13.801-0.253-19.169l8.702-1.195 5.393-10.619-6.023-8.445c3.833-3.851 7.726-7.495 12.352-10.381 2.721 1.453 5.036 3.633 7.386 5.611l9.216-2.913c0.313-2.465 0.419-5.58 1.271-7.889 0.749-2.027 2.555-2.467 4.342-3.339l1.342 12.796c-11.558 4.119-20.746 8.716-26.186 20.324-4.293 9.162-5.554 19.588-2.043 29.244 2.772 7.622 8.851 16.478 16.363 19.934l10.499 4.237c0.799 4.009 1.206 8.381 2.352 12.275z" fill="#576DCE"/> <path transform="scale(1.8476)" d="m443.96 170.31c11.841-0.904 24.64 1.924 35.155 7.344 16.991 8.756 27.587 24.292 33.274 42.134-5.24 2.512-10.564 4.172-16.158 5.69l-54.054 15.135 0.256-69.345 1.527-0.958z" fill="#F3666D"/> <path transform="scale(1.8476)" d="m267.82 212.81 0.959 0.342-12.818 50.988 39.181 6.819-71.959 72.477-1.235 1.25h-0.911c0.425-4.824 2.385-10.027 3.79-14.67l10.219-30.643c1.181-3.363 3.866-8.547 3.929-12.009l-36.861-2.483 65.706-72.071z" fill="#F5B270"/> <path transform="scale(1.8476)" d="m613.8 136.97c4.467 0.069 10.593-0.515 14.461 1.828 1.667 2.145 1.345 4.226 1.36 6.829 2e-3 0.307-0.125 2.198-5e-3 2.422 0.615 1.148 8.101 4.16 9.857 4.888 2.758-2.569 5.206-5.57 9.127-6.022 3.768 1.157 7.796 5.897 9.483 9.409l0.374 1.047c-2.043 3.35-4.234 6.221-6.847 9.147l4.446 12.698 9.804 1.658c0.486 5.139 1.518 12.436-1.884 16.76-1.663 0.632-7.994 0.334-8.464 0.71-2.072 1.658-4.452 8.234-5.613 10.756l7.339 10.3c-2.954 3.56-6.024 7.266-10.316 9.237l-8.091-5.936c-2.598 0.794-7.987 2.328-9.385 4.796-1.303 2.298-0.706 6.848-3.34 7.728-2.768 0.924-7.025 0.523-9.979 0.555-1.146-3.894-1.553-8.266-2.352-12.275l-10.499-4.237c-7.512-3.456-13.591-12.312-16.363-19.934-3.511-9.656-2.25-20.082 2.043-29.244 5.44-11.608 14.628-16.205 26.186-20.324l-1.342-12.796zm0.854 39.589c-3.429 1.792-5.844 3.601-7.023 7.5-1.005 3.326-1.164 6.883 0.709 9.929 1.672 2.719 4.358 4.491 7.461 5.148 2.168 0.46 4.42 0.062 6.53-0.493 3.433-2.172 6.389-4.935 7.469-9.013 0.627-2.369-0.172-5.017-1.422-7.061-1.939-3.17-5.156-5.561-8.829-6.24-1.755-0.324-3.183-0.192-4.895 0.23z" fill="#7AB1F6"/> <path transform="scale(1.8476)" d="m104.37 577.5-4.3925 71.14-0.665 52.732 8.9125 87.842c-16.758-7.458-32.823-13.382-50.883-17.011-2.1772-0.424-3.8116-0.687-6.0086-0.295-0.5863-10.009 1.1827-21.208 1.884-31.304 1.707-24.574 3.6381-49.356 9.6208-73.335 4.6661-18.702 11.87-36.5 20.064-53.907 5.984-12.713 12.164-25.226 21.469-35.862z" fill="#DAE4F6"/> <path transform="scale(1.8476)" d="m952.58 951.11 1.487-3.156c2.607 10.366-1.15 22.592-3.709 32.785-8.156 32.475-19.764 64.545-36.967 93.395l-18.113 28.46c-3.23-1.61-8.147-1.16-11.707-1.16l-18.946 0.09c-3.754 0.62-8.218 0.18-12.047 0.2l-24.31 0.14 9.002-42.66 4.413-21.46 3.609-17.67 1.937-9.72c1.324-0.08 2.94-0.03 4.189-0.48 1.249-0.46 1.423-1.39 1.979-2.5 1.731-3.21 5.016-6.49 7.385-9.331l14.443-17.667c16.376-3.33 30.556-10.234 45.898-16.544l31.457-12.722z" fill="#30BBBB"/> <path transform="scale(1.8476)" d="m841.68 1037.7c6.223-0.27 12.846-1.99 19.006-3.07l32.94-5.41c7.945-1.28 15.975-2.85 24.026-3.17l-18.05 27.65-42.298 3.64c-6.533 0.6-13.599 0.57-20.037 1.82l4.413-21.46z" fill="#1F9EA6"/> <path transform="scale(1.8476)" d="m837.26 1059.2c6.438-1.25 13.504-1.22 20.037-1.82l42.298-3.64-34.98 47.78c-3.754 0.62-8.218 0.18-12.047 0.2l-24.31 0.14 9.002-42.66z" fill="#30BBBB"/> <path transform="scale(1.8476)" d="m952.58 951.11 1.487-3.156c2.607 10.366-1.15 22.592-3.709 32.785-8.156 32.475-19.764 64.545-36.967 93.395l-18.113 28.46c-3.23-1.61-8.147-1.16-11.707-1.16l-18.946 0.09 34.98-47.78 18.05-27.65c4.469-6.47 7.844-13.8 11.37-20.82 8.867-17.634 16.459-35.758 23.555-54.164z" fill="#BFC9F3"/> <path transform="scale(1.8476)" d="m374.57 281.23c-4.216-8.2-5.662-18.137-5.486-27.301 0.335-17.431 7.674-35.84 20.382-47.937 11.635-11.075 28.978-19.039 45.185-18.534l2.955 0.029c1.24 1.821 0.411 9.376 0.327 11.812l-0.371 31.468c4e-3 3.069-0.548 7.467 0.227 10.403 0.388 1.471 1.989 3.366 3.477 3.685 4.302 0.923 11.235-2.134 15.419-3.245l42.122-11.833c0.824-0.273 0.442-0.339 1.132 0.249 0.906 4.25 2.058 8.66 2.521 12.968 0.474 4.408-0.812 10.135 0.563 14.234l0.951 0.496-1.709 0.71c-2.437 20.223-10.772 38.494-27.009 51.392-8.61 6.84-23.178 13.355-34.353 13.285l-0.735-0.1c-6.454 0.293-14.08-0.353-20.318-2.082-21.674-6.007-34.614-20.965-45.28-39.699z" fill="#7AB1F6"/> <path transform="scale(1.8476)" d="m374.57 281.23c-4.216-8.2-5.662-18.137-5.486-27.301 0.335-17.431 7.674-35.84 20.382-47.937 11.635-11.075 28.978-19.039 45.185-18.534l-0.619 0.519c-1.44 1.14-3.776 1.591-5.51 2.143-3.319 1.057-6.72 2.25-9.91 3.654-20.508 9.026-34.495 28.696-38.029 50.638-2.97 18.432 1.685 36.317 12.618 51.362 9.014 12.404 24.438 22.855 39.716 25.418 2.403 0.403 5.224 0.288 7.486 1.17l-0.235 0.649c-6.454 0.293-14.08-0.353-20.318-2.082-21.674-6.007-34.614-20.965-45.28-39.699z" fill="#576DCE"/> <defs> <linearGradient id="g" x1="185.56" x2="140.31" y1="918.02" y2="941.45" gradientUnits="userSpaceOnUse"> <stop stop-color="#09607B" offset="0"/> <stop stop-color="#0D7988" offset="1"/> </linearGradient> </defs> <path transform="scale(1.8476)" d="m51.333 771.9c2.197-0.392 3.8314-0.129 6.0086 0.295 18.06 3.629 34.126 9.553 50.883 17.011l30.246 18.254c3.06 2.041 7.705 4.478 9.85 7.536l26.661 22.815 31.618 36.764c-5.211 16.083-8.485 35.903-0.335 51.672 5.109 9.886 12.371 16.602 21.23 23.107 0.329 4.959 0.551 9.979 1.242 14.902l4.517 32.232c0.504 3.739 1.87 8.969 1.131 12.659l7.8 60.13c1.759 10.76 4.409 20.75 7.149 31.24l-0.328 0.31c-1.371 0.92-3.397 0.59-4.884 0.18l-1.434-7.31-19.196-15.58c-3.638-2.85-7.537-6.04-11.837-7.8l-2.832 11.65-4.728 19.88-23.926 0.05-24.638-0.08-0.216-0.54c-5.812-0.84-12.692-0.21-18.604-0.1l-18.711-26.21c-34.108-52.04-56.324-113.47-65.896-174.79-2.5111-16.084-4.5642-32.761-5.1701-49.035-0.4687-12.591 0.0996-25.115 0.7612-37.679 0.6964-13.223 0.8415-26.938 3.5305-39.918l0.1079-1.648z" fill="url(#g)"/> <path transform="scale(1.8476)" d="m212.73 1003.8c3.22 1.13 4.165 2.05 5.595 5.09 12.378 26.33 18.417 56.47 24.366 84.79l-19.196-15.58c-3.638-2.85-7.537-6.04-11.837-7.8 1.825-8.44 2.344-19.56 6.494-27.11l1.112-0.86c1.296-3.47 2.797-9.23 1.313-12.85l-2.344-0.6c-2.625-3.91-5.963-6.47-9.748-9.16 3.235-4.7 4.026-10.38 4.245-15.92z" fill="#0C8092"/> <path transform="scale(1.8476)" d="m169.79 997.55c4.756-6.253 8.555-12.033 11.983-19.094 2.953 7.618 10.091 9.892 15.883 14.661l4.115-5.186c1.788-1.811 3.928-3.752 6.301-4.72 0.371 7.113 4.453 13.102 4.658 20.605-0.219 5.54-1.01 11.22-4.245 15.92-3.571 3.18-7.276 6.4-11.343 8.94l-4.238 0.52-7.866-0.28c-3.539-11.01-8.033-22.23-15.248-31.366z" fill="#026B89"/> <path transform="scale(1.8476)" d="m201.77 987.94c1.788-1.811 3.928-3.752 6.301-4.72 0.371 7.113 4.453 13.102 4.658 20.605-0.219 5.54-1.01 11.22-4.245 15.92-3.571 3.18-7.276 6.4-11.343 8.94l-4.238 0.52c-1.364-11.97-1.318-25.39 4.752-36.079l4.115-5.186z" fill="#F6A167"/> <path transform="scale(1.8476)" d="m174.98 837.81 31.618 36.764c-5.211 16.083-8.485 35.903-0.335 51.672 5.109 9.886 12.371 16.602 21.23 23.107 0.329 4.959 0.551 9.979 1.242 14.902l4.517 32.232c0.504 3.739 1.87 8.969 1.131 12.659-1.729-1.72-2.956-4.59-4.146-6.72l-7.813-13.723-23.086-38.765-25.536-38.637 1.178-73.491z" fill="#1F9EA6"/> <path transform="scale(1.8476)" d="m51.719 773.75 110.02 133.54c-9.257-1.338-18.991-7.495-27.592-11.119l-40.998-16.977c-5.6187-2.491-13.755-7.886-19.858-8.072-5.1629-14.698-8.1438-30.358-11.476-45.555-3.7721-17.204-7.8212-34.337-10.1-51.82z" fill="#1F9EA6"/> <path transform="scale(1.8476)" d="m57.342 772.2c18.06 3.629 34.126 9.553 50.883 17.011l30.246 18.254c3.06 2.041 7.705 4.478 9.85 7.536l26.661 22.815-1.178 73.491c-6.263-6.523-12.946-15.439-17.557-23.192l-98.905-115.92z" fill="#1F9EA6"/> <path transform="scale(1.8476)" d="m148.32 815 26.661 22.815-1.178 73.491c-6.263-6.523-12.946-15.439-17.557-23.192 0.319-6.313-1.124-12.202-1.884-18.423l-4.481-37.361c-0.711-5.669-2.011-11.626-1.561-17.33z" fill="#0C8092"/> <path transform="scale(1.8476)" d="m73.295 871.13c6.103 0.186 14.24 5.581 19.858 8.072l40.998 16.977c8.601 3.624 18.335 9.781 27.592 11.119 12.74 17.93 25.93 35.825 37.359 54.63 3.522 5.794 8.784 13.428 9.416 20.315l-0.449 0.976c-2.373 0.968-4.513 2.909-6.301 4.72l-4.115 5.186c-5.792-4.769-12.93-7.043-15.883-14.661-3.428 7.061-7.227 12.841-11.983 19.094l-0.177-1e-3 -1.757 1.272-1.509-1.418-9.083-15.51c-6.679-6.123-12.513-14.069-18.523-20.924-1.736-2.299-3.31-4.383-4.424-7.063-3.569 0.04-7.178-0.608-10.697-1.138l-0.076-0.135-7.382-2.029c-7.101-4.758-13.216-9.431-18.537-16.245-3.1981-4.096-15.722-24.202-15.195-28.425l3.1719-0.807-12.304-34.005z" fill="#0C8092"/> <path transform="scale(1.8476)" d="m182.03 977.6c4.355 0.712 7.97 3.284 11.732 5.458 2.676 1.547 5.603 2.918 8.002 4.875l-4.115 5.186c-5.792-4.769-12.93-7.043-15.883-14.661l0.264-0.858z" fill="#025476"/> <path transform="scale(1.8476)" d="m157.26 981.9-0.724-3.772c-2.78-18.259 2.36-36.202 13.069-50.931 3.275 3.647 6.278 7.736 8.836 11.912 7.864 12.839 6.86 24.423 3.592 38.496l-0.264 0.858c-3.428 7.061-7.227 12.841-11.983 19.094l-0.177-1e-3 -1.757 1.272-1.509-1.418-9.083-15.51z" fill="#F5B270"/> <path transform="scale(1.8476)" d="m166.34 997.41c0.538-8.62 1.839-17.144 3.018-25.694 1.268-9.192 2.421-18.227 4.901-27.2 0.203 6.525-0.019 12.972-0.682 19.468l-2.563 18.975c-0.724 4.412-2.643 10.247-1.408 14.597l-1.757 1.272-1.509-1.418z" fill="#F1825E"/> <path transform="scale(1.8476)" d="m85.599 905.13c17.063 3.045 33.067 5.444 43.675 20.873 4.463 6.491 8.408 16.729 7.163 24.706-0.129 0.826-0.367 1.26-0.878 1.909l-1.141 0.743-0.104 0.548c-3.569 0.04-7.178-0.608-10.697-1.138l-0.076-0.135-7.382-2.029c-7.101-4.758-13.216-9.431-18.537-16.245-3.1981-4.096-15.722-24.202-15.195-28.425l3.1719-0.807z" fill="#F5B270"/> <path transform="scale(1.8476)" d="m134.42 953.36c-11.675-10.779-25.048-20.454-35.385-32.566 4.1784 1.751 7.5974 4.56 11.138 7.313 9.369 7.286 17.582 15.595 25.388 24.51l-1.141 0.743z" fill="#F1825E"/> <path transform="scale(1.8476)" d="m51.225 773.55 0.4938 0.2c2.2787 17.483 6.3278 34.616 10.1 51.82 3.332 15.197 6.3129 30.857 11.476 45.555l12.304 34.005-3.1719 0.807c-0.5274 4.223 11.997 24.329 15.195 28.425 5.3211 6.814 11.436 11.487 18.537 16.245l7.382 2.029 0.076 0.135c3.519 0.53 7.128 1.178 10.697 1.138 1.114 2.68 2.688 4.764 4.424 7.063 6.01 6.855 11.844 14.801 18.523 20.924l9.083 15.51 1.509 1.418 1.757-1.272 0.177 1e-3c7.215 9.136 11.709 20.356 15.248 31.366l7.866 0.28 4.238-0.52c4.067-2.54 7.772-5.76 11.343-8.94 3.785 2.69 7.123 5.25 9.748 9.16l2.344 0.6c1.484 3.62-0.017 9.38-1.313 12.85l-1.112 0.86c-4.15 7.55-4.669 18.67-6.494 27.11l-2.832 11.65-4.728 19.88-23.926 0.05-24.638-0.08-0.216-0.54c-5.812-0.84-12.692-0.21-18.604-0.1l-18.711-26.21c-34.108-52.04-56.324-113.47-65.896-174.79-2.5111-16.084-4.5642-32.761-5.1701-49.035-0.4687-12.591 0.0996-25.115 0.7612-37.679 0.6964-13.223 0.8415-26.938 3.5305-39.918z" fill="#DAE4F6"/> <path transform="scale(1.8476)" d="m116.16 950.61 7.382 2.029 0.076 0.135c3.519 0.53 7.128 1.178 10.697 1.138 1.114 2.68 2.688 4.764 4.424 7.063 6.01 6.855 11.844 14.801 18.523 20.924l9.083 15.51 1.509 1.418 1.757-1.272 0.177 1e-3c7.215 9.136 11.709 20.356 15.248 31.366-4.975 0.01-41.551-1.05-43.747 0.03-0.488 0.24-0.833 0.7-1.249 1.05l-1.466 4.33-15.751-37.993c-12.498-8.785-23.838-17.559-34.47-28.597 11.02-3.299 21.028-4.854 32.588-4.346l-4.781-12.786z" fill="#F5B270"/> <path transform="scale(1.8476)" d="m163.83 1001.4c-12.943-5.96-25.591-13.472-38.172-20.214-5.675-3.041-14.091-6.166-18.665-10.46 14.71 4.155 28.673 12.437 42.195 19.508 4.819 2.519 9.184 5.729 14.567 6.982l0.569 0.125 1.717 2.337-0.287 1.042-1.924 0.68z" fill="#F1825E"/> <path transform="scale(1.8476)" d="m116.16 950.61 7.382 2.029 0.076 0.135c3.519 0.53 7.128 1.178 10.697 1.138 1.114 2.68 2.688 4.764 4.424 7.063 6.01 6.855 11.844 14.801 18.523 20.924l9.083 15.51 1.509 1.418 1.757-1.272 0.177 1e-3c7.215 9.136 11.709 20.356 15.248 31.366-4.975 0.01-41.551-1.05-43.747 0.03-0.488 0.24-0.833 0.7-1.249 1.05l-1.466 4.33-15.751-37.993c11.956 5.353 27.053 10.913 40.019 5.563l0.987-0.49 1.924-0.68 0.287-1.042-1.717-2.337-3.449-5.665c-6.07-9.732-13.425-18.628-24.064-23.539-4.964-2.291-10.568-3.521-15.869-4.753l-4.781-12.786z" fill="#30BBBB"/> <path transform="scale(1.8476)" d="m138.74 960.97c-4.828-1.975-11.984-4.093-15.896-7.39l0.775-0.811c3.519 0.53 7.128 1.178 10.697 1.138 1.114 2.68 2.688 4.764 4.424 7.063z" fill="#1F9EA6"/> <path transform="scale(1.8476)" d="m208.48 1019.7c3.785 2.69 7.123 5.25 9.748 9.16l2.344 0.6c1.484 3.62-0.017 9.38-1.313 12.85l-1.112 0.86c-4.15 7.55-4.669 18.67-6.494 27.11l-2.832 11.65-4.728 19.88-23.926 0.05-24.638-0.08-0.216-0.54-11.265-53.51-1.271-4.79c-2.134-2.71-3.262-5.38-4.206-8.65l1.466-4.33c0.416-0.35 0.761-0.81 1.249-1.05 2.196-1.08 38.772-0.02 43.747-0.03l7.866 0.28 4.238-0.52c4.067-2.54 7.772-5.76 11.343-8.94z" fill="#F43D54"/> <path transform="scale(1.8476)" d="m208.48 1019.7c3.785 2.69 7.123 5.25 9.748 9.16l2.344 0.6c1.484 3.62-0.017 9.38-1.313 12.85l-1.112 0.86-55.097-0.54c-5.918-0.08-14.671-1.31-20.273 0.31-2.134-2.71-3.262-5.38-4.206-8.65l1.466-4.33c0.416-0.35 0.761-0.81 1.249-1.05 2.196-1.08 38.772-0.02 43.747-0.03l7.866 0.28 4.238-0.52c4.067-2.54 7.772-5.76 11.343-8.94z" fill="#F1825E"/> <path transform="scale(1.8476)" d="m208.48 1019.7c3.785 2.69 7.123 5.25 9.748 9.16-6.118 0.45-15.274 1.61-21.091-0.22 4.067-2.54 7.772-5.76 11.343-8.94z" fill="#026B89"/> <path transform="scale(1.8476)" d="m144.05 1047.8 0.563 0.06 35.379 0.26 0.177 53.81-24.638-0.08-0.216-0.54-11.265-53.51z" fill="#F3666D"/> <path transform="scale(1.8476)" d="m872.97 478.59c21.159 24.048 44.328 47.622 62.998 73.661 35.014 48.836 45.724 109.26 42.08 168.28-1.579 25.59-5.545 51.18-10.315 76.347-4.722 24.914-10.2 49.625-18.028 73.767 6.375-2.14 12.802-4.358 19.475-5.315l2.298-0.179c3.289 5.518-4.855 38.806-6.731 46.202l-8.434 30.614-2.254 5.986-1.487 3.156-31.457 12.722c-15.342 6.31-29.522 13.214-45.898 16.544l-14.443 17.667c-2.369 2.841-5.654 6.121-7.385 9.331-0.556 1.11-0.73 2.04-1.979 2.5-1.249 0.45-2.865 0.4-4.189 0.48-9.614-1.12-18.788-0.99-28.471-0.88l6.823-22.785-15.974-0.164-15.652-0.143c-0.621-0.267-1.759-0.061-2.453-0.033-0.026-25.419 2.289-51.111 7.231-76.055l0.736-3.139 3.531-17.112 13.943-45.197 1.159-4.099 10.021-22.034 16.785-31.035-0.929-2.179c-2.13-3.262-3.569-7.171-5.104-10.742-4.982-11.584-8.113-23.337-10.589-35.655l-0.387-10.876c-1.467-5.285-1.29-10.588-1.341-16.019l-0.16-20.627-0.617-73.532 27.557 0.12c7.365 0.064 22.273 2.157 28.259-2.482 3.98-3.085 6.298-8.252 6.543-13.221 0.153-3.084-1.277-6.852-3.51-8.996-3.494-3.355-7.343-2.984-11.821-2.831l0.169-112.04z" fill="#DAE4F6"/> <path transform="scale(1.8476)" d="m906.61 547.81c2.795 1.18 3.642 6.15 5.996 8.297 2.028 1.85 5.151 3.159 7.584 4.421-2.435 1.15-5.672 2.354-7.625 4.214-2.101 2.002-3.691 5.358-5.152 7.863-3.035-1.379-3.937-5.646-6.403-7.943-1.966-1.83-4.743-3.005-7.141-4.167 6.787-3.48 9.043-6.085 12.741-12.685z" fill="#FAAB4A"/> <path transform="scale(1.8476)" d="m920.76 809.82 5.574 1.464c-23.557 19.912-51.032 34.158-82.785 31.571l-11.787-1.058c-2.721-0.18-5.411 0.129-8.091-0.436l4.965-0.155c4.379-3.483 12.747-4.888 18.184-6.47l46.308-13.41 13.99-4.193c2.463-0.761 4.848-1.059 6.819-2.858 1.129-1.633 4.537-2.209 6.436-2.713l0.387-1.742z" fill="#F6A167"/> <path transform="scale(1.8476)" d="m942.58 677.6 1.709-1.042c2.567-1.555 4.262-2.219 7.199-2.708-9.566 24.707-25.397 48.144-50.455 59.226l-19.697 7.826c4.917-8.544 12.813-15.36 19.52-22.464l41.724-40.838z" fill="#F6A167"/> <path transform="scale(1.8476)" d="m877.87 741.65-0.407 1.744c-7.02 9.029-16.551 19.53-20.904 30.144l-7.445 11.5-1.611 2.511-0.236 0.383c-5.741 9.182-10.595 18.487-15.468 28.144-2.672 5.294-5.783 10.696-7.635 16.322l-3.236 6.469-0.337 1.712 1.381 0.798-0.125 39.559c-4.136 3.685-8.18 7.203-11.525 11.655-2.609 3.471-4.704 7.563-7.797 10.61l-0.971 3.059-1.039 4.003-4.385 33.39c5.579-10.455 7.623-22.197 14.94-31.886-2.504 8.999-6.369 17.058-9.819 25.683-2.719 6.799-5.07 13.782-6.215 21.035-1.455 9.215-1.123 18.599-1.088 27.897-0.621-0.267-1.759-0.061-2.453-0.033-0.026-25.419 2.289-51.111 7.231-76.055l0.736-3.139 3.531-17.112 13.943-45.197 1.159-4.099 10.021-22.034 16.785-31.035 1.696-2.684 10.265-16.799c7.878-7.649 11.741-20.529 21.008-26.545z" fill="#0F156E"/> <path transform="scale(1.8476)" d="m820.59 840.58 1.381 0.798-0.125 39.559c-4.136 3.685-8.18 7.203-11.525 11.655-2.609 3.471-4.704 7.563-7.797 10.61 4.484-21.196 9.553-42.646 18.066-62.622z" fill="#FEFEFE"/> <path transform="scale(1.8476)" d="m949.73 762.24 1.514 0.57 0.116 0.908c-25.877 20.438-57.917 29.55-90.629 25.714-4.475-0.524-8.939-1.523-13.46-1.506l0.236-0.383 1.611-2.511c4.849 0.388 11.88-3.859 16.652-5.347l24.186-6.861c7.002-1.782 14.138-3.483 21.279-4.603l17.282-2.178c1.975-0.338 3.658-0.275 5.657-0.106 3.85-2.013 9.071-3.69 13.366-2.512l0.506 0.147 1.684-1.332z" fill="#F5B270"/> <path transform="scale(1.8476)" d="m849.12 785.03c4.849 0.388 11.88-3.859 16.652-5.347l24.186-6.861c7.002-1.782 14.138-3.483 21.279-4.603l17.282-2.178c1.975-0.338 3.658-0.275 5.657-0.106l-28.801 6.837-38.441 10.029-11.096 2.908c-2.864 0.833-5.268 1.958-8.329 1.832l1.611-2.511z" fill="#F1825E"/> <path transform="scale(1.8476)" d="m856.56 773.53c2.742-1.605 5.287-4.487 7.729-6.563 7.476-6.356 15.519-11.007 25.105-13.346 19.784-4.826 42.828-2.04 60.333 8.617l-1.684 1.332-0.506-0.147c-4.295-1.178-9.516 0.499-13.366 2.512-1.999-0.169-3.682-0.232-5.657 0.106l-17.282 2.178c-7.141 1.12-14.277 2.821-21.279 4.603l-24.186 6.861c-4.772 1.488-11.803 5.735-16.652 5.347l7.445-11.5z" fill="#FAAB4A"/> <path transform="scale(1.8476)" d="m805.44 909.35 6.792-0.193 6.634-0.029 0.103 31.377c-0.022 7.277-1.381 17.774 1.254 24.553l-10.623 21.46-15.652-0.143c-0.035-9.298-0.367-18.682 1.088-27.897 1.145-7.253 3.496-14.236 6.215-21.035 3.45-8.625 7.315-16.684 9.819-25.683-7.317 9.689-9.361 21.431-14.94 31.886l4.385-33.39 4.925-0.906z" fill="#FEFEFE"/> <path transform="scale(1.8476)" d="m877.82 740.6c-0.426-6.723 0.734-14.195 2.279-20.739 3.98-16.856 16.384-32.202 31.049-41.137 10.128-6.17 19.852-9.557 31.584-11.42 2.871-0.456 5.955-1.235 8.82-0.537l1.609 0.767-1.672 6.321c-2.937 0.489-4.632 1.153-7.199 2.708l-1.709 1.042-41.724 40.838c-6.707 7.104-14.603 13.92-19.52 22.464l-3.87 2.488 0.407-1.744-0.054-1.051z" fill="#FAAB4A"/> <path transform="scale(1.8476)" d="m951.55 666.76 1.609 0.767-1.672 6.321c-2.937 0.489-4.632 1.153-7.199 2.708l-1.709 1.042-1.184-1.888c2.703-1.853 5.745-3.799 7.652-6.504 0.813-1.154 1.291-1.724 2.503-2.446z" fill="#FA8323"/> <path transform="scale(1.8476)" d="m941.4 675.71 1.184 1.888-41.724 40.838c-6.707 7.104-14.603 13.92-19.52 22.464l-3.87 2.488 0.407-1.744-0.054-1.051c3.52-3.58 6.33-7.747 9.5-11.616l16.592-19.05c11.499-12.739 24.358-23.283 37.485-34.217z" fill="#F1825E"/> <path transform="scale(1.8476)" d="m824.17 832.39c9.814-9.323 19.605-18.115 32.167-23.612 20.338-8.9 44.253-6.953 64.431 1.038l-0.387 1.742c-1.899 0.504-5.307 1.08-6.436 2.713-1.971 1.799-4.356 2.097-6.819 2.858l-13.99 4.193-46.308 13.41c-5.437 1.582-13.805 2.987-18.184 6.47l-4.965 0.155-1.701 0.012-1.381-0.798 0.337-1.712 3.236-6.469z" fill="#FAAB4A"/> <path transform="scale(1.8476)" d="m820.93 838.86c6.769-0.69 11.948-3.18 18.258-5.362l23.497-7.607c16.887-4.931 34.014-8.267 51.256-11.619-1.971 1.799-4.356 2.097-6.819 2.858l-13.99 4.193-46.308 13.41c-5.437 1.582-13.805 2.987-18.184 6.47l-4.965 0.155-1.701 0.012-1.381-0.798 0.337-1.712z" fill="#F1825E"/> <path transform="scale(1.8476)" d="m821.85 880.93c3.833-2.727 7.791-5.474 12.02-7.553 16.068-7.9 32.295-8.762 49.669-6.543 4.215 0.539 9.271 0.877 13.224 2.334 1.201 0.442 0.937 0.412 1.436 1.455l-1.831 1.715-1.802 1.805c-15.535 13.835-31.955 25.573-52.258 31.417-6.005 1.729-12.984 2.981-19.238 3.214-1.741 0.065-9.808-0.357-10.835 0.384l-6.792 0.193-4.925 0.906 1.039-4.003 0.971-3.059c3.093-3.047 5.188-7.139 7.797-10.61 3.345-4.452 7.389-7.97 11.525-11.655z" fill="#FAAB4A"/> <path transform="scale(1.8476)" d="m801.56 906.26 66.071-26.453c8.796-3.023 19.381-7.249 28.74-7.463l-1.802 1.805c-13.493 1.438-26.787 8.397-39.356 13.407-16.675 6.647-34.187 12.8-49.767 21.801l-4.925 0.906 1.039-4.003z" fill="#F1825E"/> <path transform="scale(1.8476)" d="m805.44 909.35c15.58-9.001 33.092-15.154 49.767-21.801 12.569-5.01 25.863-11.969 39.356-13.407-15.535 13.835-31.955 25.573-52.258 31.417-6.005 1.729-12.984 2.981-19.238 3.214-1.741 0.065-9.808-0.357-10.835 0.384l-6.792 0.193z" fill="#F6A167"/> <path transform="scale(1.8476)" d="m827.89 728.22 0.538-4.784c1.917-13.207 6.337-25.193 12.471-36.971 1.221-2.345 2.467-5.684 4.616-7.275l1.882 1.927c3.261 6.163 6.888 12.039 9.714 18.443 7.284 16.511 10.283 35.317 4.879 52.872-1.531 4.972-4.571 10.69-5.13 15.757l-10.265 16.799-1.696 2.684-0.929-2.179c-2.13-3.262-3.569-7.171-5.104-10.742-4.982-11.584-8.113-23.337-10.589-35.655l-0.387-10.876z" fill="#F5B270"/> <path transform="scale(1.8476)" d="m827.89 728.22 0.538-4.784c1.917-13.207 6.337-25.193 12.471-36.971 1.221-2.345 2.467-5.684 4.616-7.275l1.882 1.927c-1 2.059-1.84 3.685-1.635 6.06l0.117 64.717 3e-3 21.373c4e-3 3.776-0.471 8.126 0.713 11.721l-1.696 2.684-0.929-2.179c-2.13-3.262-3.569-7.171-5.104-10.742-4.982-11.584-8.113-23.337-10.589-35.655l-0.387-10.876z" fill="#F6A167"/> <path transform="scale(1.8476)" d="m843.97 785.5-0.208-71.153-0.14-18.149c-8e-3 -1.67-0.268-4.959 0.363-6.505 0.321-0.786 1.266-1.788 1.777-2.509l0.117 64.717 3e-3 21.373c4e-3 3.776-0.471 8.126 0.713 11.721l-1.696 2.684-0.929-2.179z" fill="#F1825E"/> <path transform="scale(1.8476)" d="m820.22 965.06c13.213-21.493 30.755-38.39 51.059-53.122 0.602 3.941-0.571 7.924-1.342 11.78l-2.883 15.343-7.845 39.376c-0.736 2.935-1.441 7.302-3.205 9.82l-0.615 0.722c-0.789 3.336-1.518 6.536-1.736 9.965l-0.266 8.425c-0.556 1.11-0.73 2.04-1.979 2.5-1.249 0.45-2.865 0.4-4.189 0.48-9.614-1.12-18.788-0.99-28.471-0.88l6.823-22.785-15.974-0.164 10.623-21.46z" fill="#1F9EA6"/> <path transform="scale(1.8476)" d="m825.58 986.68 20.253 0.098c2.256 1e-3 6.887-0.59 8.545 0.927 0.474 0.433 0.669 0.765 1.02 1.27-0.789 3.336-1.518 6.536-1.736 9.965l-0.266 8.425c-0.556 1.11-0.73 2.04-1.979 2.5-1.249 0.45-2.865 0.4-4.189 0.48-9.614-1.12-18.788-0.99-28.471-0.88l6.823-22.785z" fill="#F43D54"/> <path transform="scale(1.8476)" d="m871.28 911.94c3.487-3.275 8.352-6.01 12.371-8.631 15.375-10.027 31.399-18.592 48.399-25.525l-5.162 24.071c-1.031 4.498-3.631 11.166-2.847 15.596-0.827 0.874-0.342 0.658-1.388 0.785-0.037 2.035-0.338 3.51-1.087 5.401-10.11 13.8-22.276 26.659-33.258 39.818-4.528 5.426-9.595 10.747-13.092 16.918l-14.443 17.667c-2.369 2.841-5.654 6.121-7.385 9.331l0.266-8.425c0.218-3.429 0.947-6.629 1.736-9.965l0.615-0.722c1.764-2.518 2.469-6.885 3.205-9.82l7.845-39.376 2.883-15.343c0.771-3.856 1.944-7.839 1.342-11.78z" fill="#30BBBB"/> <path transform="scale(1.8476)" d="m922.66 918.24c-0.037 2.035-0.338 3.51-1.087 5.401-10.11 13.8-22.276 26.659-33.258 39.818-4.528 5.426-9.595 10.747-13.092 16.918l-14.443 17.667c-2.369 2.841-5.654 6.121-7.385 9.331l0.266-8.425c6.875-5.65 11.87-13.373 17.494-20.209l26.52-31.992c7.998-9.729 15.747-19.9 24.985-28.509z" fill="#0C8092"/> <path transform="scale(1.8476)" d="m969.18 865.33 2.298-0.179c3.289 5.518-4.855 38.806-6.731 46.202l-8.434 30.614-2.254 5.986-1.487 3.156-31.457 12.722c-15.342 6.31-29.522 13.214-45.898 16.544 3.497-6.171 8.564-11.492 13.092-16.918 10.982-13.159 23.148-26.018 33.258-39.818 0.749-1.891 1.05-3.366 1.087-5.401 1.046-0.127 0.561 0.089 1.388-0.785-0.784-4.43 1.816-11.098 2.847-15.596l5.162-24.071 13.419-4.954c1.324-0.494 3.445-0.979 4.235-2.187 6.375-2.14 12.802-4.358 19.475-5.315z" fill="#1F9EA6"/> <path transform="scale(1.8476)" d="m969.18 865.33 0.741 0.656-24.005 26.958-21.874 24.509c-0.784-4.43 1.816-11.098 2.847-15.596l5.162-24.071 13.419-4.954c1.324-0.494 3.445-0.979 4.235-2.187 6.375-2.14 12.802-4.358 19.475-5.315z" fill="#4DD7CC"/> <path transform="scale(1.8476)" d="m971.48 865.15c3.289 5.518-4.855 38.806-6.731 46.202l-8.434 30.614c-5.789-0.118-11.644 1.061-17.366 1.855l-32.58 4.597 16.84-23.904 24.075-29.049c4.373-5.135 23.81-25.049 24.196-30.315z" fill="#4DD7CC"/> <path transform="scale(1.8476)" d="m227.5 949.36c7.663 3.913 15.239 7.491 23.624 9.626l25.098 5.739c24.451 4.441 48.343 6.288 73.099 7.449 8.365 0.392 18.29 2.162 26.451-0.433-0.015 3.53 0.589 6.906 2.935 9.662 1.827 1.139 3.3 1.33 5.393 1.486 14.755 1.099 30.352 0.154 45.194 0.135l69.687-0.294 79.199-0.214 31.356-7e-3 -0.086 16.889 0.558 88.685h18.464c7.861-0.28 17.909-1.55 24.275 4.14 2.724 2.44 4.663 6.25 6.083 9.56l98.341-0.23 37.106 0.18 33.991 0.13 24.31-0.14c3.829-0.02 8.293 0.42 12.047-0.2l18.946-0.09c3.56 0 8.477-0.45 11.707 1.16l2.545 2.77c3.989 0.77 8.456 0.67 12.528 1.07l29.196 3.25c8.38 1.03 17.463 2.12 25.44 5.06 2.429 0.89 4.165 1.55 5.298 4.01-0.375 1.99-0.923 2.3-2.626 3.44-5.015 3.34-12.134 4.41-17.988 5.48-13.025 2.4-26.274 3.77-39.444 5.08-120.49 11.99-242.2 10.56-363.16 11.09l-107.58 0.62-89.372-1.87-75.628-1.48-128.82-7.42c-27.195-2.15-55.339-3.48-81.869-10.16-3.5504-0.89-7.1876-2.12-9.173-5.41 0.2287-0.67 0.1994-0.74 0.7103-1.38 2.166-2.73 9.2672-4.56 12.509-5.48 21.941-6.18 46.187-8.26 68.876-10.08 5.912-0.11 12.792-0.74 18.604 0.1l0.216 0.54 24.638 0.08 23.926-0.05 4.728-19.88 2.832-11.65c4.3 1.76 8.199 4.95 11.837 7.8l19.196 15.58 1.434 7.31c1.487 0.41 3.513 0.74 4.884-0.18l0.328-0.31c-2.74-10.49-5.39-20.48-7.149-31.24l-7.8-60.13c0.739-3.69-0.627-8.92-1.131-12.659l-4.517-32.232c-0.691-4.923-0.913-9.943-1.242-14.902z" fill="#BFC9F3"/> <path transform="scale(1.8476)" d="m599.55 1087.8 10.449 0.28h18.464c7.861-0.28 17.909-1.55 24.275 4.14 2.724 2.44 4.663 6.25 6.083 9.56l98.341-0.23 37.106 0.18 33.991 0.13 24.31-0.14c3.829-0.02 8.293 0.42 12.047-0.2l18.946-0.09c3.56 0 8.477-0.45 11.707 1.16l2.545 2.77c-0.417 3.25-0.667 4.65-2.912 7.06-3.271 1.47-8.676 0.8-12.288 0.8l-24.477-0.02h-88.911-368.53c5.24-3.66 8.626-7.01 12.345-12.24l1.986 0.45c4.274 0.56 8.822 0.26 13.144 0.26l22.678 0.01 88.709 0.1 15.761-0.05c1.96 0 4.479 0.41 6.111-0.67 3.932 1.45 8.973 0.92 13.119 0.91 1.52-0.01 3.78 0.28 5.162-0.42l0.653-0.37c2.086-5.59 4.189-8.68 8.615-12.76l4.635-0.85c1.942 0.04 4.023-0.07 5.937 0.23z" fill="#3D4A99"/> <path transform="scale(1.8476)" d="m599.55 1087.8 10.449 0.28h18.464c7.861-0.28 17.909-1.55 24.275 4.14 2.724 2.44 4.663 6.25 6.083 9.56-6.083 0.56-12.768 0.05-18.912 0.06l-39.767 0.04-14.185-0.01c-1.988 0-3.808 0.3-5.594-0.69 2.086-5.59 4.189-8.68 8.615-12.76l4.635-0.85c1.942 0.04 4.023-0.07 5.937 0.23z" fill="#576DCE"/> <path transform="scale(1.8476)" d="m227.5 949.36c7.663 3.913 15.239 7.491 23.624 9.626l25.098 5.739c0.398 7.897 5.009 49.978 9.524 53.718 1.202 0.99 2.783 1.86 4.262 2.35 1.172 15.3 2.593 31.95 6.131 46.85l0.539 2.05c2.764 0.62 5.906 0.33 8.749 0.34l15.513 0.01c4.845 0 11.58 0.81 16.186-0.36 3.752-0.51 26.884-1.74 28.999-0.38 2.016 1.68 4.288 2.98 6.277 4.65 5.018 4.2 7.437 10.11 8.054 16.48 0.768 7.95-4.069 14.6-8.952 20.27l-1.569 1.8 0.586 0.8-0.163 0.12-170.76 0.3-40.867 0.02c-5.85 0-14.031 1-19.63-0.56-1.668-0.47-2.396-1.95-3.222-3.34-0.47-3.49-0.089-4.74 1.972-7.57 4.228-1.54 12.949-0.47 17.685-0.45l24.638 0.08 23.926-0.05 4.728-19.88 2.832-11.65c4.3 1.76 8.199 4.95 11.837 7.8l19.196 15.58 1.434 7.31c1.487 0.41 3.513 0.74 4.884-0.18l0.328-0.31c-2.74-10.49-5.39-20.48-7.149-31.24l-7.8-60.13c0.739-3.69-0.627-8.92-1.131-12.659l-4.517-32.232c-0.691-4.923-0.913-9.943-1.242-14.902z" fill="#3D4A99"/> <path transform="scale(1.8476)" d="m211.66 1070.3c4.3 1.76 8.199 4.95 11.837 7.8l19.196 15.58 1.434 7.31c1.487 0.41 3.513 0.74 4.884-0.18l0.328-0.31-0.857 1.07-9.948 0.25-34.434 0.01 4.728-19.88 2.832-11.65z" fill="#30BBBB"/> <path transform="scale(1.8476)" d="m211.66 1070.3c4.3 1.76 8.199 4.95 11.837 7.8l19.196 15.58 1.434 7.31c1.487 0.41 3.513 0.74 4.884-0.18l0.328-0.31-0.857 1.07-9.948 0.25c1.223-0.17 2.073-0.35 3.202-0.9-3.798-3.56-9.735-5.51-14.225-8.14-5.942-3.47-12.065-8.93-18.683-10.83l2.832-11.65z" fill="#1F9EA6"/> <path transform="scale(1.8476)" d="m296.13 1067.6-0.62 2.05c-3.542 0.6-7.436 0.28-11.026 0.29l-18.656 0.03-15.692-110.01 0.979-1.017 25.098 5.739c0.398 7.897 5.009 49.978 9.524 53.718 1.202 0.99 2.783 1.86 4.262 2.35 1.172 15.3 2.593 31.95 6.131 46.85z" fill="#0F156E"/> <defs> <linearGradient id="f" x1="469.3" x2="432.21" y1="983.7" y2="1105.2" gradientUnits="userSpaceOnUse"> <stop stop-color="#6161F1" offset="0"/> <stop stop-color="#83A0FB" offset="1"/> </linearGradient> </defs> <path transform="scale(1.8476)" d="m276.22 964.72c24.451 4.441 48.343 6.288 73.099 7.449 8.365 0.392 18.29 2.162 26.451-0.433-0.015 3.53 0.589 6.906 2.935 9.662 1.827 1.139 3.3 1.33 5.393 1.486 14.755 1.099 30.352 0.154 45.194 0.135l69.687-0.294 79.199-0.214 31.356-7e-3 -0.086 16.889 0.558 88.685-10.449-0.28c-1.914-0.3-3.995-0.19-5.937-0.23l-4.635 0.85c-4.426 4.08-6.529 7.17-8.615 12.76l-0.653 0.37c-1.382 0.7-3.642 0.41-5.162 0.42-4.146 0.01-9.187 0.54-13.119-0.91-1.632 1.08-4.151 0.67-6.111 0.67l-15.761 0.05-88.709-0.1-22.678-0.01c-4.322 0-8.87 0.3-13.144-0.26l-1.986-0.45c-3.719 5.23-7.105 8.58-12.345 12.24l-30.183 0.1-0.586-0.8 1.569-1.8c4.883-5.67 9.72-12.32 8.952-20.27-0.617-6.37-3.036-12.28-8.054-16.48-1.989-1.67-4.261-2.97-6.277-4.65-2.115-1.36-25.247-0.13-28.999 0.38-4.606 1.17-11.341 0.36-16.186 0.36l-15.513-0.01c-2.843-0.01-5.985 0.28-8.749-0.34l-0.539-2.05c-3.538-14.9-4.959-31.55-6.131-46.85-1.479-0.49-3.06-1.36-4.262-2.35-4.515-3.74-9.126-45.821-9.524-53.718z" fill="url(#f)"/> <path transform="scale(1.8476)" d="m290 1020.8 5.351 0.5c10.488 19.07 24.96 34.84 41.767 48.39-4.606 1.17-11.341 0.36-16.186 0.36l-15.513-0.01c-2.843-0.01-5.985 0.28-8.749-0.34l-0.539-2.05c-3.538-14.9-4.959-31.55-6.131-46.85z" fill="#576DCE"/> <path transform="scale(1.8476)" d="m366.12 1069.3 15.314-0.09c9.449-0.2 19.541-0.7 26.87 6.33 4.586 4.41 6.801 10.05 6.778 16.36-0.012 3.23-0.886 6.05-2.038 9.06-3.719 5.23-7.105 8.58-12.345 12.24l-30.183 0.1-0.586-0.8 1.569-1.8c4.883-5.67 9.72-12.32 8.952-20.27-0.617-6.37-3.036-12.28-8.054-16.48-1.989-1.67-4.261-2.97-6.277-4.65z" fill="#0F156E"/> <path transform="scale(1.8476)" d="m498.98 982.73 79.199-0.214c-1.727 5.328-1.142 11.648-1.152 17.206l-7e-3 27.241c-20.524-18.98-46.089-27.209-73.301-30.601-2.037-4.043-3.604-9.251-4.739-13.632z" fill="#DAE4F6"/> <path transform="scale(1.8476)" d="m578.18 982.51 31.356-7e-3 -0.086 16.889 0.558 88.685-10.449-0.28c0.102-14.75-2.371-29.29-9.476-42.37-3.659-6.74-8.27-12.53-13.062-18.47l7e-3 -27.241c0.01-5.558-0.575-11.878 1.152-17.206z" fill="#FEFEFE"/> <path transform="scale(1.8476)" d="m415.03 1101.4 107.59 0.07c-0.408-18.23-1.764-33.48-10.961-49.59-14.335-25.12-39.706-36.71-66.807-43.04-6.205-1.45-12.374-1.73-18.683-3.48l2.561-0.37c17.874-2.4 36.259 0.67 53.612 4.85 18.687 4.49 37.126 10.11 52.58 21.95 15.049 11.53 22.65 25.54 25.109 44.31l1.858 20.66c3.286-3.97 6.55-6.54 11.54-8.02l0.905-0.25c5.917-1.72 13.184-1.26 19.287-0.93l-4.635 0.85c-4.426 4.08-6.529 7.17-8.615 12.76l-0.653 0.37c-1.382 0.7-3.642 0.41-5.162 0.42-4.146 0.01-9.187 0.54-13.119-0.91-1.632 1.08-4.151 0.67-6.111 0.67l-15.761 0.05-88.709-0.1-22.678-0.01c-4.322 0-8.87 0.3-13.144-0.26z" fill="#4F52F1"/> <path transform="scale(1.8476)" d="m561.43 1101.1c1.134-2.23 2.36-4.32 4.136-6.11 5.944-5.99 15.522-6.48 23.413-6.53-4.426 4.08-6.529 7.17-8.615 12.76l-0.653 0.37c-1.382 0.7-3.642 0.41-5.162 0.42-4.146 0.01-9.187 0.54-13.119-0.91z" fill="#0F156E"/> <path transform="scale(1.8476)" d="m276.22 964.72c24.451 4.441 48.343 6.288 73.099 7.449 8.365 0.392 18.29 2.162 26.451-0.433-0.015 3.53 0.589 6.906 2.935 9.662 1.827 1.139 3.3 1.33 5.393 1.486 14.755 1.099 30.352 0.154 45.194 0.135l69.687-0.294c1.135 4.381 2.702 9.589 4.739 13.632-14.094-1.563-28.154-1.656-42.313-1.55-17.219 0.128-34.16 0.64-51.062 4.166-14.066 2.935-27.812 7.555-41.661 11.375-23.738 6.55-48.645 11.12-73.325 10.94l-5.351-0.5c-1.479-0.49-3.06-1.36-4.262-2.35-4.515-3.74-9.126-45.821-9.524-53.718z" fill="#C3424A"/> <defs> <linearGradient id="e" x1="768.6" x2="532.8" y1="908.83" y2="832.5" gradientUnits="userSpaceOnUse"> <stop stop-color="#3F4191" offset="0"/> <stop stop-color="#6264AC" offset="1"/> </linearGradient> </defs> <path transform="scale(1.8476)" d="m514.78 831.44 6.02-34.491c1.12-6.669 1.601-13.84 3.584-20.296 0.672-2.188 1.708-3.863 3.325-5.478 1.71-1.71 3.618-3.019 5.99-3.619 5.742-1.452 12.216-0.684 18.099-0.649l29.036 0.071 197.64 0.208c2.155 0.623 4.358 2.071 5.43 4.105l0.2 0.507c3.481 5.826-0.752 19.102-1.506 25.681 2.68 4.984 4.466 10.379 7.164 15.345 2.881 5.302 7.651 10.004 9.504 15.798l1.139 0.819 9.975 9.406c1.957 1.717 5.254 3.833 6.559 5.993l-13.943 45.197-3.531 17.112-0.736 3.139c-4.942 24.944-7.257 50.636-7.231 76.055 0.694-0.028 1.832-0.234 2.453 0.033l15.652 0.143 15.974 0.164-6.823 22.785c9.683-0.11 18.857-0.24 28.471 0.88l-1.937 9.72-3.609 17.67-4.413 21.46-9.002 42.66-33.991-0.13-37.106-0.18-98.341 0.23c-1.42-3.31-3.359-7.12-6.083-9.56-6.366-5.69-16.414-4.42-24.275-4.14h-18.464l-0.558-88.685 0.086-16.889-31.356 7e-3 -79.199 0.214-69.687 0.294c-14.842 0.019-30.439 0.964-45.194-0.135-2.093-0.156-3.566-0.347-5.393-1.486-2.346-2.756-2.95-6.132-2.935-9.662l-0.684-3.765 14.299-0.367 4.38-26.496c3.941 2.031 7.988 2.106 12.275 2.66 1.717 0.221 4.209 1.046 5.879 0.775 2.848-0.462 6.531-2.603 9.311-3.717l16.799-6.687c7.415-3.105 13.819-6.129 21.865-7.301 5.981 2.013 12.932 3.996 18.408 7.146 6.416 3.692 11.963 8.846 18.308 12.724l1.783-10.971 7.702-48.848 8.688-55.449z" fill="url(#e)"/> <path transform="scale(1.8476)" d="m651.11 846.29c3.584-0.118 7.075-0.352 10.243 1.666 3.974 2.531 6.605 6.94 7.741 11.416 1.977 7.784-0.336 16.602-4.478 23.303-3.947 6.387-9.62 9.877-16.793 11.611-2.719 0.137-5.305 0.388-7.84-0.801-4.274-2.007-7.292-5.856-8.894-10.23-2.53-6.903-1.179-14.712 1.809-21.246 3.874-8.472 9.755-12.532 18.212-15.719z" fill="#7794E9"/> <path transform="scale(1.8476)" d="m492.91 968.32 10.642 0.199 18.806-110.03 8.067-48.282c1.699-10.571 3.043-21.318 5.363-31.769 0.438-1.972 1.058-4.101 2.406-5.66 1.358-1.57 2.989-2.004 4.97-2.173l8.976 0.299-4.388 17.879-14.865 77.779-4.564 23.438-11.23 63.343c-0.742 4.016-0.692 11.967-2.901 15.094 1.662 1.032 7.56 1.143 9.838 1.524-10.869 0.063-22.468 0.954-33.222-0.595 0.692-0.404 1.373-0.721 2.102-1.05z" fill="#576DCE"/> <path transform="scale(1.8476)" d="m782.6 797.48c2.68 4.984 4.466 10.379 7.164 15.345 2.881 5.302 7.651 10.004 9.504 15.798l1.139 0.819 9.975 9.406c1.957 1.717 5.254 3.833 6.559 5.993l-13.943 45.197-3.531 17.112-0.736 3.139-3.544-2.979c-12.285-6.282-19.798-17.839-27.6-28.768l2.82-16.19 0.592-3.844 3.39-18.916c1.651-5.238 2.307-10.936 3.296-16.337l4.915-25.775z" fill="#F5B270"/> <path transform="scale(1.8476)" d="m771 858.51c5.387 5.293 8.281 11.494 11.746 18.09l7.591 14.554c2.692 5.776 4.319 11.516 9.131 15.998l-0.736 3.139-3.544-2.979c-3.782-9.089-9.48-18.016-14.211-26.707-3.297-6.055-5.759-13.258-10.569-18.251l0.592-3.844z" fill="#F1825E"/> <path transform="scale(1.8476)" d="m770.4 862.35c4.81 4.993 7.272 12.196 10.569 18.251 4.731 8.691 10.429 17.618 14.211 26.707-12.285-6.282-19.798-17.839-27.6-28.768l2.82-16.19z" fill="#F5B270"/> <path transform="scale(1.8476)" d="m800.4 829.44 9.975 9.406c1.957 1.717 5.254 3.833 6.559 5.993l-13.943 45.197c-1.457-2.039-1.406-5.649-1.811-8.091-1.636-9.866-1.076-20.139-1.092-30.134-0.012-7.347-0.477-15.074 0.312-22.371z" fill="#FEFEFE"/> <path transform="scale(1.8476)" d="m782.6 797.48c2.68 4.984 4.466 10.379 7.164 15.345 2.881 5.302 7.651 10.004 9.504 15.798l-0.322 31.381c-0.014 3.681 0.571 8.67-0.247 12.162-6.736-12.406-14.049-22.823-24.31-32.574 1.651-5.238 2.307-10.936 3.296-16.337l4.915-25.775z" fill="#FEFEFE"/> <path transform="scale(1.8476)" d="m514.78 831.44 6.02-34.491c1.12-6.669 1.601-13.84 3.584-20.296 0.672-2.188 1.708-3.863 3.325-5.478 1.71-1.71 3.618-3.019 5.99-3.619 5.742-1.452 12.216-0.684 18.099-0.649l29.036 0.071 197.64 0.208c2.155 0.623 4.358 2.071 5.43 4.105l0.2 0.507-1.041 0.412c-3.116-1.663-6.156-2.127-9.634-2.218-4.591-0.121-9.219 0.351-13.815 0.431l-26.16 0.087-108.79-0.161-54.211-0.156c-8.676-0.027-18.794-1.025-27.29 0.41-1.981 0.169-3.612 0.603-4.97 2.173-1.348 1.559-1.968 3.688-2.406 5.66-2.32 10.451-3.664 21.198-5.363 31.769l-8.067 48.282-18.806 110.03-10.642-0.199 0.959-5.698 2.736-15.908 1.783-10.971 7.702-48.848 8.688-55.449z" fill="#0F156E"/> <path transform="scale(1.8476)" d="m459.89 926.84c5.981 2.013 12.932 3.996 18.408 7.146 6.416 3.692 11.963 8.846 18.308 12.724l-2.736 15.908-0.959 5.698c-0.729 0.329-1.41 0.646-2.102 1.05 10.754 1.549 22.353 0.658 33.222 0.595 10.914 0.849 22.515 0.044 33.527 0.047l70.349 0.011 76.819 0.123c13.46 0.042 27.363 0.758 40.768-0.05 1.766-0.106 3.547-0.929 5.102-1.727-2.836 6.339-7.677 11.173-14.314 13.543-3.325 1.187-7.628 0.574-11.136 0.549l-19.775-7e-3 -76.675 0.011 0.131 15.54c-5.405 3.719-12.955 0.29-19.383 1.394l0.086-16.889-31.356 7e-3 -79.199 0.214-69.687 0.294c-14.842 0.019-30.439 0.964-45.194-0.135-2.093-0.156-3.566-0.347-5.393-1.486-2.346-2.756-2.95-6.132-2.935-9.662l-0.684-3.765 14.299-0.367 4.38-26.496c3.941 2.031 7.988 2.106 12.275 2.66 1.717 0.221 4.209 1.046 5.879 0.775 2.848-0.462 6.531-2.603 9.311-3.717l16.799-6.687c7.415-3.105 13.819-6.129 21.865-7.301z" fill="#0F156E"/> <path transform="scale(1.8476)" d="m470.84 952.29c6.134 3.562 12.208 7.155 14.586 14.231-10.409-0.284-20.776-0.719-31.122 0.693-1.042-3.042-1.056-6.966-1.709-10.194 5.59-2.949 12.108-3.63 18.245-4.73z" fill="#B36AC2"/> <path transform="scale(1.8476)" d="m412.17 967.5c8.477-11.178 27.103-17.337 39.436-23.276 6.422 2.073 13.713 4.324 19.608 7.581l-0.368 0.49c-6.137 1.1-12.655 1.781-18.245 4.73 0.653 3.228 0.667 7.152 1.709 10.194-8.967 1.27-19.347 1.128-28.365 0.2-4.307-0.536-9.388 0.044-13.775 0.081z" fill="#F1825E"/> <path transform="scale(1.8476)" d="m452.6 957.02c0.653 3.228 0.667 7.152 1.709 10.194-8.967 1.27-19.347 1.128-28.365 0.2l26.656-10.394z" fill="#576DCE"/> <defs> <linearGradient id="d" x1="461.43" x2="419.69" y1="982.42" y2="924.38" gradientUnits="userSpaceOnUse"> <stop stop-color="#F4B479" offset="0"/> <stop stop-color="#ECAB8D" offset="1"/> </linearGradient> </defs> <path transform="scale(1.8476)" d="m459.89 926.84c5.981 2.013 12.932 3.996 18.408 7.146 6.416 3.692 11.963 8.846 18.308 12.724l-2.736 15.908-0.959 5.698c-0.729 0.329-1.41 0.646-2.102 1.05-2.41-0.756-3.599-0.969-5.382-2.843-2.378-7.076-8.452-10.669-14.586-14.231l0.368-0.49c-5.895-3.257-13.186-5.508-19.608-7.581-12.333 5.939-30.959 12.098-39.436 23.276l-22.784 0.109 4.38-26.496c3.941 2.031 7.988 2.106 12.275 2.66 1.717 0.221 4.209 1.046 5.879 0.775 2.848-0.462 6.531-2.603 9.311-3.717l16.799-6.687c7.415-3.105 13.819-6.129 21.865-7.301z" fill="url(#d)"/> <path transform="scale(1.8476)" d="m471.21 951.8c9.288-0.289 15.757 5.252 22.661 10.816l-0.959 5.698c-0.729 0.329-1.41 0.646-2.102 1.05-2.41-0.756-3.599-0.969-5.382-2.843-2.378-7.076-8.452-10.669-14.586-14.231l0.368-0.49z" fill="#F6A167"/> <path transform="scale(1.8476)" d="m767.58 878.54c7.802 10.929 15.315 22.486 27.6 28.768l3.544 2.979c-4.942 24.944-7.257 50.636-7.231 76.055 0.694-0.028 1.832-0.234 2.453 0.033l15.652 0.143 15.974 0.164-6.823 22.785c9.683-0.11 18.857-0.24 28.471 0.88l-1.937 9.72-3.609 17.67-4.413 21.46-9.002 42.66-33.991-0.13-37.106-0.18-98.341 0.23c-1.42-3.31-3.359-7.12-6.083-9.56-6.366-5.69-16.414-4.42-24.275-4.14h-18.464l-0.558-88.685c6.428-1.104 13.978 2.325 19.383-1.394l-0.131-15.54 76.675-0.011 19.775 7e-3c3.508 0.025 7.811 0.638 11.136-0.549 6.637-2.37 11.478-7.204 14.314-13.543 1.941-3.344 2.192-7.381 2.856-11.126l3.1-17.615 11.031-61.081z" fill="#FEFEFE"/> <path transform="scale(1.8476)" d="m609.44 999.4c6.428-1.104 13.978 2.325 19.383-1.394l-0.361 90.079h-18.464l-0.558-88.685z" fill="#7794E9"/> <path transform="scale(1.8476)" d="m791.5 986.34c0.694-0.028 1.832-0.234 2.453 0.033l15.652 0.143 15.974 0.164-6.823 22.785-0.498 0.42-80.362-0.15c-2.91-0.2-5.891 0.14-8.801 0.32l-0.044-23.566 61.978-0.107 0.471-0.042z" fill="#F1825E"/> <path transform="scale(1.8476)" d="m818.75 1009.5c9.683-0.11 18.857-0.24 28.471 0.88l-1.937 9.72-3.609 17.67-4.413 21.46-9.002 42.66-33.991-0.13-37.106-0.18-17.23-83.39-2.043-8.42 80.362 0.15 0.498-0.42z" fill="#F43D54"/> <path transform="scale(1.8476)" d="m818.75 1009.5c9.683-0.11 18.857-0.24 28.471 0.88l-1.937 9.72-30.993-2.05 3.961-8.13 0.498-0.42z" fill="#C3424A"/> <path transform="scale(1.8476)" d="m739.94 1018.2 73.765-0.08-25.936 45.88-17.071 25.74c-1.77 2.56-7.164 8.68-7.628 11.47l20.823 0.16c3.336 0.03 7.122-0.32 10.383 0.4l-37.106-0.18-17.23-83.39z" fill="#F3666D"/> <path transform="scale(1.8476)" d="m503.98 257.73c19.81-0.341 40.491 0.609 60.002 4.16 60.257 10.965 114.9 43.103 163.88 78.536l33.108 25.346 46.439-52.01c-0.225-1.64-25.739-24.511-29.081-27.813l76.594-14.373-19.92 68.55-18.619-18.089-45.969 51.549c17.941 16.059 37.828 31.007 54.018 48.831l0.065-41.238 33.949-0.183 14.408-0.06 0.121 97.657-0.169 112.04c4.478-0.153 8.327-0.524 11.821 2.831 2.233 2.144 3.663 5.912 3.51 8.996-0.245 4.969-2.563 10.136-6.543 13.221-5.986 4.639-20.894 2.546-28.259 2.482l-27.557-0.12 0.617 73.532 0.16 20.627c0.051 5.431-0.126 10.734 1.341 16.019l0.387 10.876c2.476 12.318 5.607 24.071 10.589 35.655 1.535 3.571 2.974 7.48 5.104 10.742l0.929 2.179-16.785 31.035-10.021 22.034-1.159 4.099c-1.305-2.16-4.602-4.276-6.559-5.993l-9.975-9.406-1.139-0.819c-1.853-5.794-6.623-10.496-9.504-15.798-2.698-4.966-4.484-10.361-7.164-15.345 0.754-6.579 4.987-19.855 1.506-25.681l-0.2-0.507c-1.072-2.034-3.275-3.482-5.43-4.105l-197.64-0.208-29.036-0.071c-5.883-0.035-12.357-0.803-18.099 0.649-2.372 0.6-4.28 1.909-5.99 3.619-1.617 1.615-2.653 3.29-3.325 5.478-1.983 6.456-2.464 13.627-3.584 20.296l-6.02 34.491-8.688 55.449-7.702 48.848-1.783 10.971c-6.345-3.878-11.892-9.032-18.308-12.724-5.476-3.15-12.427-5.133-18.408-7.146-8.046 1.172-14.45 4.196-21.865 7.301l-16.799 6.687c-2.78 1.114-6.463 3.255-9.311 3.717-1.67 0.271-4.162-0.554-5.879-0.775-4.287-0.554-8.334-0.629-12.275-2.66l-4.38 26.496-14.299 0.367 0.684 3.765c-8.161 2.595-18.086 0.825-26.451 0.433-24.756-1.161-48.648-3.008-73.099-7.449l-25.098-5.739c-8.385-2.135-15.961-5.713-23.624-9.626-8.859-6.505-16.121-13.221-21.23-23.107-8.15-15.769-4.876-35.589 0.335-51.672l-31.618-36.764-26.661-22.815c-2.145-3.058-6.79-5.495-9.85-7.536l-30.246-18.254-8.9125-87.842 0.665-52.732 4.3925-71.14 6.575-48.727 0.524-4.288 0.841-4.886 0.812-2.614c0.819-1.356 1.28-2.662 1.8-4.148 2.348-6.719 4.735-8.199 10.956-11.196l-4.712-3.113c2.916-5.838 6.736-10.814 10.918-15.785 7.96-9.462 17.313-17.109 28.077-23.165 13.947-7.846 29.214-13.1 43.024-21.304 13.873-8.241 26.884-19.953 36.883-32.584 8.659-10.938 14.259-23.374 20.416-35.78 21.775-43.874 68.887-73.474 114.09-88.671 10.666 18.734 23.606 33.692 45.28 39.699 6.238 1.729 13.864 2.375 20.318 2.082l0.735 0.1c11.175 0.07 25.743-6.445 34.353-13.285 16.237-12.898 24.572-31.169 27.009-51.392l1.709-0.71z" fill="#DAE4F6"/> <path transform="scale(1.8476)" d="m525.21 691.68c-0.552 1.268-1.167 2.292-1.946 3.438-2.412-0.241-3.756-4.779-5.692-6.115-0.462-0.319-2.387-0.518-2.993-0.651l-7.688-1.853c3.256-2.528 6.428-4.686 10.068-6.625 1.1 0.619 1.711 0.745 2.329 1.893 1.682 3.124 3.828 7.099 5.922 9.913z" fill="#F3666D"/> <path transform="scale(1.8476)" d="m516.96 679.87 0.97-9.502c5.366 6.624 8 8.459 16.259 10.431-3.068 2.572-8.566 6.281-9 10.48l0.022 0.397c-2.094-2.814-4.24-6.789-5.922-9.913-0.618-1.148-1.229-1.274-2.329-1.893z" fill="#F1825E"/> <path transform="scale(1.8476)" d="m525.1 370.94 2.385-0.359c1.795-0.139 2.891 0.408 4.165 1.66 2.197 2.16 2.222 3.844 2.149 6.823-0.964 2.123-1.862 3.074-3.788 4.376-1.199 0.38-2.367 0.543-3.63 0.4-1.824-0.205-3.471-1.76-4.457-3.213-0.942-1.388-0.934-3.748-0.55-5.313 0.517-2.101 2.021-3.228 3.726-4.374z" fill="#576DCE"/> <path transform="scale(1.8476)" d="m467.3 475.64c4.934 0.189 9.734 1.095 14.565 2.045l-2.016 9.139-14.294-2.005 1.745-9.179z" fill="#FEFEFE"/> <path transform="scale(1.8476)" d="m375.09 475.38 7.295-0.516 0.977 10.042-8.588 0.64c-2.244 0.046-4.579 0.276-6.758-0.33-0.951-2.166-2.115-6.492-1.701-8.801l8.775-1.035z" fill="#FEFEFE"/> <path transform="scale(1.8476)" d="m396.24 421.56 1.987-0.532c3.152 2.406 5.967 9.318 8.044 12.9l-7.978 5.109c-3.195-4.332-6.338-8.584-8.883-13.342l6.83-4.135z" fill="#FEFEFE"/> <path transform="scale(1.8476)" d="m420.77 413.8 10.709 0.138c-0.041 5.622-0.644 10.922-1.602 16.456-2.995 0.345-6.288 0.122-9.319 0.161l0.212-16.755z" fill="#FEFEFE"/> <path transform="scale(1.8476)" d="m452.97 420.76 9.034 6.893-9.077 11.616-1.563 1.156c-2.78-1.215-4.953-3.445-7.213-5.429l8.819-14.236z" fill="#FEFEFE"/> <path transform="scale(1.8476)" d="m475.66 444.69c1.116-0.158 1.27-0.112 2.271 0.26l3.247 8.581c-2.627 2.496-10.651 4.462-14.179 5.533l-1.29-0.032c-1.652-2.228-2.666-5.474-3.755-8.052 4.242-2.777 8.947-4.605 13.706-6.29z" fill="#FEFEFE"/> <path transform="scale(1.8476)" d="m374.03 441.95c3.992 2.285 10.846 4.938 14.036 8.034l-3.147 8.45-2.012 0.071-14.219-6.732 5.342-9.823z" fill="#FEFEFE"/> <path transform="scale(1.8476)" d="m340.65 366.34c4.174 6.666 6.577 9.937 13.604 14.001-5.465 2.955-9.005 6.844-12.542 11.847l-1.319 0.875c-3.108-5.352-5.705-9.372-11.393-12.277l-0.79-0.398c5.667-4.396 9.138-7.53 12.44-14.048z" fill="#F5B270"/> <path transform="scale(1.8476)" d="m601.28 296.85c3.963 6.53 6.614 9.936 13.167 13.931-6.117 4.661-9.207 7.86-13.201 14.526-2.589-3.516-5.196-7.106-8.504-9.989-1.778-1.549-4.547-2.722-5.952-4.537 6.308-4.281 10.005-7.857 14.49-13.931z" fill="#F5B270"/> <path transform="scale(1.8476)" d="m699.24 515.58c3.496 0.018 7.709-0.392 10.943 0.983 0.879 2.528 0.587 5.229 0.59 7.876l0.014 14.404-0.037 51.711-14.198-5e-3c0.693-5.871 0.215-12.226 0.232-18.162l0.115-35.609c0.023-6.558-0.276-13.304 0.294-19.835l2.047-1.363z" fill="#F6A167"/> <path transform="scale(1.8476)" d="m640.08 486.25 13.788-3e-3 0.075 104.33-13.881 0.018 0.018-104.34z" fill="#DA8BB9"/> <path transform="scale(1.8476)" d="m228.48 713.21 9.992-46.262 3.472-15.63c0.585-2.54 0.839-5.243 2.048-7.572l44.291 69.846-59.803-0.382z" fill="#30BBBB"/> <path transform="scale(1.8476)" d="m805.29 426.8 12.964 3e-3 0.058 163.4c-2.51-0.281-5.374-0.029-7.919-0.023l-5.253-0.073 0.15-163.31z" fill="#F6A167"/> <path transform="scale(1.8476)" d="m663.92 590.55-0.084-74.851 35.405-0.116-2.047 1.363c-0.57 6.531-0.271 13.277-0.294 19.835l-0.115 35.609c-0.017 5.936 0.461 12.291-0.232 18.162l-32.633-2e-3z" fill="#F5B270"/> <path transform="scale(1.8476)" d="m558.25 590.25-0.135-58.992 23.807 0.127c5.454-0.039 11.251-0.607 16.61 0.469l2.026 0.243c2.106 4.115 0.893 13.088 0.872 17.942l0.049 40.064-0.086 0.389-13.728 0.057-29.415-0.299z" fill="#F3666D"/> <path transform="scale(1.8476)" d="m598.54 531.86 2.026 0.243c2.106 4.115 0.893 13.088 0.872 17.942l0.049 40.064-0.086 0.389-13.728 0.057-0.034-58.505 10.901-0.19z" fill="#F43D54"/> <path transform="scale(1.8476)" d="m360.56 647.26c-8.573-10.199-17.533-24.53-17.376-38.326 0.035-3.087 1.128-6.116 1.691-9.132 0.629-3.374-2.214-9.45-3.15-12.811-3.482-12.515-8.341-30.59-1.484-42.46 4.026-6.97 11.346-9.306 18.675-11.265l0.342 0.429c0.807 1.031 1.465 1.971 2.025 3.156 2.755 5.836 8.428 8.019 13.795 10.933 2.257 1.226 4.748 2.859 7.2 3.587l0.418 0.047c-0.251 6.774-0.319 13.666-1.268 20.382-0.908 6.428-2.629 12.706-3.945 19.056l-4.079 14.853c-1.151-4.817-1.773-9.187-6.318-12.031-2.575-1.612-5.587-2.034-8.527-1.312-3.936 0.968-7.625 3.586-9.63 7.136-2.508 4.44-3.032 9.478-1.611 14.339 1.324 4.528 5.281 8.709 9.463 10.83 2.053 1.041 4.299 1.388 6.333 2.52 0.17 0.591 0.495 1.281 0.391 1.89l-0.936 7.028-2.009 11.151z" fill="#0F156E"/> <path transform="scale(1.8476)" d="m395.88 499.81c1.667-1.222 7.52-0.527 9.827-0.507-7.897-7.488-13.456-14.856-13.623-26.136-0.121-8.183 2.996-16.836 8.842-22.626 6.724-6.659 14.627-9.493 24.023-9.376l4.841 0.455c8.389 1.366 14.39 5.071 19.514 11.946 5.202 6.979 7.418 15.875 6.004 24.456-1.398 8.483-4.848 14.923-11.691 20.157-2.183 1.669-4.428 3.013-5.986 5.32l-41.751-3.689z" fill="#BFC9F3"/> <path transform="scale(1.8476)" d="m422.61 466.56c0.723-0.126 1.266-0.123 1.99 0.01 2.285 0.422 4.261 1.735 5.487 3.815 0.708 1.2 1.064 5.399 0.43 6.584-1.234 2.305-3.303 3.688-5.725 4.453-1.473 0.186-2.922-0.144-4.376-0.372-1.39-1.022-2.693-1.924-3.435-3.532-0.909-1.969-0.953-4.59-0.016-6.565 1.168-2.463 3.202-3.518 5.645-4.393z" fill="#FEFEFE"/> <path transform="scale(1.8476)" d="m601.48 590.1 6.165-0.189c1.873-3.285 0.636-19.456 0.621-24.319l-0.486-79.355 32.302 9e-3 -0.018 104.34-38.67-0.1 0.086-0.389z" fill="#E0B6D4"/> <path transform="scale(1.8476)" d="m751.44 478.71 14.469-0.043-0.026 110.4c1.81 1.388 3.864 0.983 6.107 1.051l33.149-7e-3 5.253 0.073-92.469 0.364 0.933-0.577-0.612-111.21 33.196-0.042z" fill="#7AB1F6"/> <path transform="scale(1.8476)" d="m751.44 478.71 14.469-0.043-0.026 110.4c1.81 1.388 3.864 0.983 6.107 1.051l33.149-7e-3 5.253 0.073-92.469 0.364 0.933-0.577c3.27 0.758 7.212 0.287 10.597 0.281l21.979-0.063 8e-3 -111.47z" fill="#7794E9"/> <path transform="scale(1.8476)" d="m771.99 590.11-0.598-163.31 33.897-6e-3 -0.15 163.31-33.149 7e-3z" fill="#F5B270"/> <path transform="scale(1.8476)" d="m186.67 578 8.008 7.733 29.172 32.119c6.946 8.095 14.538 16.804 20.144 25.897-1.209 2.329-1.463 5.032-2.048 7.572l-3.472 15.63-9.992 46.262c-1.564 0.06-5.171-0.257-6.453 0.374-9.234-0.03-19.928-1.728-27.549 4.4-3.413-4.777-5.426-11.319-7.711-16.729l-8.95-20.504c-1.352-2.214-2.152-4.597-3.035-7.023 1.143-1.521 0.998-3.929 1.155-5.798l1.345-15.841 6.56-59.276c0.653-4.981 1.671-9.93 2.826-14.816z" fill="#4DD7CC"/> <path transform="scale(1.8476)" d="m186.67 578 8.008 7.733-11.123 63.452c-1.809 10.252-2.784 21.649-5.736 31.569-1.352-2.214-2.152-4.597-3.035-7.023 1.143-1.521 0.998-3.929 1.155-5.798l1.345-15.841 6.56-59.276c0.653-4.981 1.671-9.93 2.826-14.816z" fill="#30BBBB"/> <path transform="scale(1.8476)" d="m253.22 432.39 16.133 5.597 0.091 13.708c2.938 1.95 5.362 4.615 7.85 7.094l12.81-3.451c0.851 1.47 7.968 16.205 7.836 16.61-0.071 0.216-1.483 1.368-1.726 1.59-2.597 2.375-6.96 5.233-8.968 7.969-1.016 1.384-0.909 7.639-1.04 9.465l10.867 8.729-8.943 17.126-13.554-3.557-9.588 6.345c-1.125 4.63-1.527 9.189-1.916 13.925l-17.754 3.054-3.962-8.554c-2.758-5.408-5.839-5.956-11.292-7.883l-11.477 7.432-12.655-12.25c-0.348-0.335-0.964-0.528-1.045-1.005-0.018-0.102 1.004-1.946 1.085-2.102l4.06-7.836c0.205-0.392 1.24-2.008 1.246-2.389 0.033-2.328-2.15-7.158-2.856-9.544l-14.175-5.525 2.88-19.352 2.841-0.03c3.691-0.057 8.024 0.656 10.628-2.243 0.94-1.046 3.596-3.976 3.973-5.213 1.334-4.374-2.644-11.246-2.746-15.793l16.075-8.638c3.074 2.882 6.159 6.25 9.707 8.523 1.604 0.161 3.46 0.448 5.035 0.021 4.903-1.331 8.063-7.775 10.58-11.823z" fill="#7AB1F6"/> <path transform="scale(1.8476)" d="m240.87 462.6c3.61-0.427 8.294-0.705 11.807 0.299 5.683 1.625 10.489 5.834 13.171 11.057 2.941 5.728 3.765 11.859 1.614 18.028-2.398 6.877-8.169 10.425-14.404 13.343-4.519 0.98-8.189 1.139-12.647-0.183-5.808-1.723-10.71-6.348-13.428-11.705-2.598-5.121-2.793-11.963-0.822-17.35 2.666-7.282 8.02-10.46 14.709-13.489z" fill="#FEFEFE"/> <path transform="scale(1.8476)" d="m244.44 477.81c0.906-0.157 1.889-0.352 2.81-0.305 1.409 0.072 3.359 1.254 4.252 2.307 1.141 1.345 1.848 3.431 1.578 5.186-0.463 3.016-2.074 4.22-4.438 5.938l-2.642 0.314c-1.856-0.033-3.536-1.379-4.668-2.742-1.247-1.5-1.495-3.588-1.175-5.464 0.468-2.743 2.066-3.788 4.283-5.234z" fill="#7AB1F6"/> <defs> <linearGradient id="c" x1="392.77" x2="464.69" y1="566.35" y2="492.38" gradientUnits="userSpaceOnUse"> <stop stop-color="#373A74" offset="0"/> <stop stop-color="#58588C" offset="1"/> </linearGradient> </defs> <path transform="scale(1.8476)" d="m395.88 499.81 41.751 3.689c13.112 1.963 26.318 4.474 38.62-1.934 2.084 2.885 1.264 6.704 0.715 10.051-1.245 7.598-4.469 14.46-7.776 21.349 7.163-4.528 13.534-9.205 18.682-16.049 2.492 14.938 0.584 26.196-8.402 38.641-4.775 6.613-10.717 11.837-16.855 17.125l-0.996 0.437c-19.927 0.133-39.489-4.849-57.815-12.47l-12.49-5.635c-2.54-1.263-5.79-3.473-8.621-3.597l-0.418-0.047c-2.452-0.728-4.943-2.361-7.2-3.587-5.367-2.914-11.04-5.097-13.795-10.933-0.56-1.185-1.218-2.125-2.025-3.156l-0.342-0.429c3.061-0.932 5.096-8.647 6.455-11.599 2.094-4.549 4.442-9.433 7.789-13.18 6.357-7.116 13.625-8.152 22.723-8.676z" fill="url(#c)"/> <path transform="scale(1.8476)" d="m760.97 365.77 46.439-52.01c-0.225-1.64-25.739-24.511-29.081-27.813l76.594-14.373-19.92 68.55-18.619-18.089-45.969 51.549c-2.504 4.335-7.706 8.915-11.131 12.781l-30.108 33.867-71.445-49.53-106.07 112.49-8.67-8.84 112.37-119.3 71.573 49.645 34.036-38.931z" fill="#F3666D"/> <path transform="scale(1.8476)" d="m818.31 590.2 6.767 0.495 32.202 0.141c5.107 0.309 10.427 0.375 15.521-0.204 4.478-0.153 8.327-0.524 11.821 2.831 2.233 2.144 3.663 5.912 3.51 8.996-0.245 4.969-2.563 10.136-6.543 13.221-5.986 4.639-20.894 2.546-28.259 2.482l-27.557-0.12-245.02-0.032-23.75 0.119c-3.587 0.023-8.099 0.535-11.584-0.203-2.038-0.432-4.436-1.514-6.068-2.813-3.285-2.613-4.819-6.076-5.23-10.186-0.342-3.412 0.793-6.639 3.035-9.217 5.443-6.254 13.62-4.876 21.099-5.46l29.415 0.299 13.728-0.057 38.67 0.1 13.881-0.018 9.975-0.03 32.633 2e-3 14.198 5e-3 7.172-0.01 92.469-0.364c2.545-6e-3 5.409-0.258 7.919 0.023z" fill="#3D4A99"/> <path transform="scale(1.8476)" d="m382.7 551.41c2.831 0.124 6.081 2.334 8.621 3.597l12.49 5.635c18.326 7.621 37.888 12.603 57.815 12.47l0.996-0.437-0.585 29.515c-0.4 23.931-1.672 52.533-20.137 70.227-5.748 5.508-13.676 9.012-21.66 8.788l-8.233-0.391c-4.347-2.94-9.702-4.302-14.211-7.167-10.882-6.914-20.863-18.036-26.85-29.407-2.512-4.771-4.297-9.884-7.051-14.523l-0.386-0.644c0.104-0.609-0.221-1.299-0.391-1.89-2.034-1.132-4.28-1.479-6.333-2.52-4.182-2.121-8.139-6.302-9.463-10.83-1.421-4.861-0.897-9.899 1.611-14.339 2.005-3.55 5.694-6.168 9.63-7.136 2.94-0.722 5.952-0.3 8.527 1.312 4.545 2.844 5.167 7.214 6.318 12.031l4.079-14.853c1.316-6.35 3.037-12.628 3.945-19.056 0.949-6.716 1.017-13.608 1.268-20.382z" fill="#F6A167"/> <path transform="scale(1.8476)" d="m450.67 587.81 0.53-0.063c2.688-0.273 4.564 0.208 6.608 2.038 2.299 2.059 2.594 3.792 2.653 6.775l-0.976 0.698-5.404-2.789c-2.801-0.624-5.164 0.256-7.586 1.553l-0.749 0.408-1.256-0.494c-0.228-1.281-0.314-2.272 0.235-3.493 1.176-2.621 3.479-3.598 5.945-4.633z" fill="#0F156E"/> <path transform="scale(1.8476)" d="m429.71 612.81c1.017-0.39 1.533-0.297 2.587-0.074 0.91 1.407 1.519 2.774 2.122 4.332 1.494 3.865 4.474 10.11 2.425 14.147-1.248 2.458-3.321 3.466-5.797 4.357-1.18 0.101-1.968 0.236-3.106-0.179-0.872-0.317-0.782-0.568-1.157-1.333 1.463-1.079 5.83-3.839 6.514-5.373 0.109-0.246-0.491-2.414-0.564-2.693-1.011-3.864-4.392-9.601-3.024-13.184z" fill="#F3666D"/> <path transform="scale(1.8476)" d="m401.46 586.87 1.502-0.059c2.469-0.078 5.628-0.237 7.454 1.796 1.323 1.473 1.574 2.275 1.634 4.203-0.862 1.449-1.473 2.349-2.885 3.293l-5.428-1.895-0.438 0.042c-1.536 0.1-3.215 0.07-4.674 0.609-1.633 0.603-2.896 1.59-4.695 1.701-0.156-0.762-0.211-1.388 0-2.151 1.058-3.836 4.365-5.643 7.53-7.539z" fill="#0F156E"/> <path transform="scale(1.8476)" d="m449.28 602.19c0.917-0.279 1.396-0.4 2.37-0.23 1.189 0.208 2.173 1.735 2.786 2.73 1.502 2.436 1.581 6.87 0.95 9.629-0.558 2.447-1.649 3.286-3.714 4.603l-0.705 0.173c-0.759-0.017-1.695-0.325-2.226-0.856-2.331-2.333-3.066-4.337-3.053-7.592 0.015-3.639 0.998-5.892 3.592-8.457z" fill="#0F156E"/> <path transform="scale(1.8476)" d="m402.41 601.56c0.546-0.111 0.871-0.208 1.459-0.172 1.483 0.09 2.785 1.345 3.522 2.539 1.349 2.184 1.232 7.038 0.661 9.509-0.587 2.538-1.646 3.979-3.887 5.264-1.731-0.049-2.455-0.15-3.64-1.514-2.151-2.476-2.213-6.759-1.755-9.842 0.403-2.713 1.478-4.17 3.64-5.784z" fill="#0F156E"/> <path transform="scale(1.8476)" d="m358.28 599.69c1.988-0.43 4.461-0.708 6.493-0.304 1.651 0.328 2.006 1.484 2.673 2.803-0.455 4.932 0.718 12.395-1.423 16.712l-1.876 0.397-2.508-0.427c-2.657-0.621-4.482-2.477-5.791-4.807-1.473-2.621-2.069-7.894-1.079-10.758 0.694-2.006 1.659-2.672 3.511-3.616z" fill="#F3666D"/> <path transform="scale(1.8476)" d="m411.68 647.81c3.189-0.738 6.403 1.069 9.569 1.482 5.938 0.775 11.847 0.367 17.797 0.026l-4.336 7.458c-1.593 1.531-3.276 3.257-5.538 3.675-3.966 0.733-8.406-0.422-11.609-2.824-3.297-2.472-5.324-5.715-5.883-9.817z" fill="#FEFEFE"/> <path transform="scale(1.8476)" d="m382.7 551.41c2.831 0.124 6.081 2.334 8.621 3.597l12.49 5.635c18.326 7.621 37.888 12.603 57.815 12.47-2.27 2.237-5.096 2.277-8.073 2.731-6.016 0.916-11.733 1.28-17.817 1.237-16.975-0.119-34.334-6.247-48.683-15.208-1.018 6.122-4.32 24.96-8.916 28.518l-0.65 0.458c1.316-6.35 3.037-12.628 3.945-19.056 0.949-6.716 1.017-13.608 1.268-20.382z" fill="#F1825E"/> <path transform="scale(1.8476)" d="m858.44 380.99 14.408-0.06 0.121 97.657-0.169 112.04c-5.094 0.579-10.414 0.513-15.521 0.204l-32.202-0.141c0.886-8.165 0.123-17.197 0.112-25.438l-0.08-51.922-0.186-60.831c-0.054-9.827 0.604-20.338-0.497-30.091l0.065-41.238 33.949-0.183z" fill="#7AB1F6"/> <path transform="scale(1.8476)" d="m858.44 380.99 14.408-0.06 0.121 97.657-0.169 112.04c-5.094 0.579-10.414 0.513-15.521 0.204 0.344-0.384 0.796-0.692 1.032-1.15 0.719-1.401 0.079-189.21 0.129-208.69z" fill="#7794E9"/> <path transform="scale(1.8476)" d="m112.31 519.59 26.994 18.011c10.915 7.867 21.283 16.588 31.391 25.454 5.431 4.763 11.233 9.484 15.975 14.937-1.155 4.886-2.173 9.835-2.826 14.816l-6.56 59.276-1.345 15.841c-0.157 1.869-0.012 4.277-1.155 5.798 0.883 2.426 1.683 4.809 3.035 7.023l8.95 20.504c2.285 5.41 4.298 11.952 7.711 16.729l-3.66 5.128-0.754 0.786c-3.075-0.519-8.107-5.99-10.849-8.204l-58.24-50.042-21-17.016 4.3925-71.14 6.575-48.727 0.524-4.288 0.841-4.886z" fill="#4DD7CC"/> <path transform="scale(1.8476)" d="m110.94 528.77 0.524-4.288c0.854 0.621 1.455 0.764 1.769 1.798l61.546 147.45c0.883 2.426 1.683 4.809 3.035 7.023l8.95 20.504c2.285 5.41 4.298 11.952 7.711 16.729l-3.66 5.128-18.254-44.986-31.87-78.125-20.958-51.531c-2.377-5.751-4.358-12.75-7.285-18.157-0.366-0.676-0.92-1.081-1.508-1.544z" fill="#1F9EA6"/> <path transform="scale(1.8476)" d="m112.31 519.59 26.994 18.011c10.915 7.867 21.283 16.588 31.391 25.454 5.431 4.763 11.233 9.484 15.975 14.937-1.155 4.886-2.173 9.835-2.826 14.816l-6.56 59.276-1.345 15.841c-0.157 1.869-0.012 4.277-1.155 5.798l-61.546-147.45c-0.314-1.034-0.915-1.177-1.769-1.798l0.841-4.886z" fill="#4DD7CC"/> <path transform="scale(1.8476)" d="m580.75 618.01 245.02 0.032 0.617 73.532 0.16 20.627c0.051 5.431-0.126 10.734 1.341 16.019l0.387 10.876c2.476 12.318 5.607 24.071 10.589 35.655 1.535 3.571 2.974 7.48 5.104 10.742l0.929 2.179-16.785 31.035-10.021 22.034-1.159 4.099c-1.305-2.16-4.602-4.276-6.559-5.993l-9.975-9.406-1.139-0.819c-1.853-5.794-6.623-10.496-9.504-15.798-2.698-4.966-4.484-10.361-7.164-15.345 0.754-6.579 4.987-19.855 1.506-25.681l-0.2-0.507c-1.072-2.034-3.275-3.482-5.43-4.105l-197.64-0.208-0.082-148.97z" fill="#FEFEFE"/> <path transform="scale(1.8476)" d="m828.12 818.71c-1.314-5.915-0.761-11.631-0.684-17.627l0.056-24.278 0.039-24.248c0.019-4.403-0.397-9.194 0.752-13.458 2.476 12.318 5.607 24.071 10.589 35.655 1.535 3.571 2.974 7.48 5.104 10.742l0.929 2.179-16.785 31.035z" fill="#DAE4F6"/> <path transform="scale(1.8476)" d="m664.44 662.04 19.738 30.98-11.891 0.512 0.319 36.133-7.601 0.139-7.875 0.208 0.376-36.813-12.182-2e-3 19.116-31.157z" fill="#7AB1F6"/> <path transform="scale(1.8476)" d="m778.47 767.19 1.18-0.938 2.486-32.338c6.012 4.088 10.547 9.146 15.429 14.468l0.304-100.87-81.399 0.021 0.03 74.874-0.082 25.592c-0.036 4.448 0.525 10.126-0.99 14.31l-0.328-114.79-100.18-3e-3 -0.083 114.44-0.783-0.123c-1.15-4.608-0.485-9.758-0.398-14.477l0.07-19.928-0.43-81.18 186.27-0.515-0.553 76.517-0.08 19.131c-6e-3 2.431-0.415 5.644 0.018 8.011 0.315 1.726 2.878 4.5 3.983 6.05 2.869 4.02 5.554 8.22 8.005 12.507 4.589 8.027 7.812 17.018 9.158 26.187 1.194 8.142 1.442 16.418 0.426 24.593-0.854 6.868-3.351 15.213-2.424 22.014l-1.159 4.099c-1.305-2.16-4.602-4.276-6.559-5.993l-9.975-9.406-1.139-0.819c-1.853-5.794-6.623-10.496-9.504-15.798-2.698-4.966-4.484-10.361-7.164-15.345 0.754-6.579 4.987-19.855 1.506-25.681l-0.2-0.507c-1.072-2.034-3.275-3.482-5.43-4.105z" fill="#F6A167"/> <path transform="scale(1.8476)" d="m786.56 752.19 0.545 0.156c1.332 1.595 2.177 3.916 2.887 5.869 1.906 5.235 3.151 10.727 4.813 16.04l9.471 29.233 7.702 20.635c1.715 4.445 3.935 9.536 4.175 14.317l-0.433-0.182c-3.537-4.301-6.046-9.822-8.259-14.898-4.236-9.715-7.558-19.768-10.839-29.836-4.267-13.095-10.001-27.415-10.062-41.334z" fill="#F1825E"/> <defs> <linearGradient id="b" x1="512.85" x2="205.9" y1="840.84" y2="826.05" gradientUnits="userSpaceOnUse"> <stop stop-color="#D65751" offset="0"/> <stop stop-color="#EE9184" offset="1"/> </linearGradient> </defs> <path transform="scale(1.8476)" d="m362.57 636.1 0.936-7.028 0.386 0.644c2.754 4.639 4.539 9.752 7.051 14.523 5.987 11.371 15.968 22.493 26.85 29.407 4.509 2.865 9.864 4.227 14.211 7.167-0.279 4.292-1.171 9.428-4e-3 13.593 1.525 3.022 2.297 6.011 3.383 9.178 34.848 25.937 61.312 59.025 82.763 96.618 3.857 6.76 7.084 13.883 10.549 20.85 1.681 3.38 3.449 7.667 6.087 10.385l-8.688 55.449-7.702 48.848-1.783 10.971c-6.345-3.878-11.892-9.032-18.308-12.724-5.476-3.15-12.427-5.133-18.408-7.146-8.046 1.172-14.45 4.196-21.865 7.301l-16.799 6.687c-2.78 1.114-6.463 3.255-9.311 3.717-1.67 0.271-4.162-0.554-5.879-0.775-4.287-0.554-8.334-0.629-12.275-2.66l-4.38 26.496-14.299 0.367 0.684 3.765c-8.161 2.595-18.086 0.825-26.451 0.433-24.756-1.161-48.648-3.008-73.099-7.449l-25.098-5.739c-8.385-2.135-15.961-5.713-23.624-9.626-8.859-6.505-16.121-13.221-21.23-23.107-8.15-15.769-4.876-35.589 0.335-51.672l-31.618-36.764-26.661-22.815c-2.145-3.058-6.79-5.495-9.85-7.536l-30.246-18.254-8.9125-87.842 0.665-52.732 21 17.016 58.24 50.042c2.742 2.214 7.774 7.685 10.849 8.204l0.754-0.786 3.66-5.128c7.621-6.128 18.315-4.43 27.549-4.4 1.282-0.631 4.889-0.314 6.453-0.374l59.803 0.382 10.725-0.512c4.807-1.922 9.81-5.615 14.45-8.109 9.511-5.113 19.272-8.817 29.62-11.798 1.961-4.759 3.186-11.085 6.064-15.266l1.039 0.896c2.513-1.714 3.425-5.027 4.36-7.868 2.56-7.776 4.308-15.684 6.016-23.678l2.009-11.151z" fill="url(#b)"/> <path transform="scale(1.8476)" d="m375.71 933.9c5.727 1.637 13.561 3.168 18.054 7.213l-4.38 26.496-14.299 0.367c-0.992-4.513-0.283-9.257-0.17-13.843 0.164-6.64-0.144-13.67 0.795-20.233z" fill="#7794E9"/> <path transform="scale(1.8476)" d="m412 694.41c1.525 3.022 2.297 6.011 3.383 9.178l10.84 51.053c-8.036-6.226-14.763-13.139-22.06-20.175-2.207-2.128-6.19-4.65-7.177-7.572 6.792-8.522 10.864-17.298 13.834-27.714l1.18-4.77z" fill="#576DCE"/> <path transform="scale(1.8476)" d="m343.08 693.17c1.961-4.759 3.186-11.085 6.064-15.266l1.039 0.896c3.091 6.825 7.085 12.352 11.652 18.244 8.899 11.483 19.86 22.788 32.743 29.747-0.351 2.38-2.672 5.694-3.796 7.944l-12.212 24.291c-6.947-8.799-11.505-19.252-16.802-29.062-6.548-12.128-13.759-23.874-18.688-36.794z" fill="#576DCE"/> <path transform="scale(1.8476)" d="m362.57 636.1 0.936-7.028 0.386 0.644c2.754 4.639 4.539 9.752 7.051 14.523 5.987 11.371 15.968 22.493 26.85 29.407 4.509 2.865 9.864 4.227 14.211 7.167-0.279 4.292-1.171 9.428-4e-3 13.593l-1.18 4.77c-2.97 10.416-7.042 19.192-13.834 27.714l-2.406-0.102c-12.883-6.959-23.844-18.264-32.743-29.747-4.567-5.892-8.561-11.419-11.652-18.244 2.513-1.714 3.425-5.027 4.36-7.868 2.56-7.776 4.308-15.684 6.016-23.678l2.009-11.151z" fill="#F1825E"/> <path transform="scale(1.8476)" d="m362.57 636.1 0.936-7.028 0.386 0.644c2.754 4.639 4.539 9.752 7.051 14.523 5.987 11.371 15.968 22.493 26.85 29.407 4.509 2.865 9.864 4.227 14.211 7.167-0.279 4.292-1.171 9.428-4e-3 13.593l-1.18 4.77c-5.532-2.848-11.102-5.007-16.41-8.378-14.207-9.024-22.787-24.968-26.807-40.901-1.224-4.851-1.674-9.882-5.033-13.797z" fill="#F3666D"/> <path transform="scale(1.8476)" d="m228.48 713.21 59.803 0.382 10.725-0.512c-7.598 6.668-15.203 13.24-21.923 20.818-21.167 23.869-33.597 52.505-46.425 81.304-3.167-8.386-4.357-17.333-5.926-26.115l-5.978-33.445c-1.772-9.814-6.414-22.235-4.986-31.982 0.659-4.5 4.85-7.534 8.257-10.076 1.282-0.631 4.889-0.314 6.453-0.374z" fill="#3D4A99"/> <defs> <linearGradient id="a" x1="506.2" x2="320.48" y1="917.36" y2="802.68" gradientUnits="userSpaceOnUse"> <stop stop-color="#B1363C" offset="0"/> <stop stop-color="#CA5458" offset="1"/> </linearGradient> </defs> <path transform="scale(1.8476)" d="m375.71 933.9c-29.846-14.134-59.086-30.246-89.701-42.623-4.875-1.972-9.687-3.394-14.801-4.557-3.416-0.777-6.943-1.2-10.205-2.512v-0.862c8.021 0.507 15.469 3.354 22.819 6.383 3.108-2.351 5.463-8.151 7.305-11.575 11.261-20.935 20.585-42.502 27.657-65.218l7.086-23.661c0.779-2.657 1.016-6.152 2.564-8.407 0.136 0.828 0.188 1.393 0.016 2.229-3.813 18.461-6.277 38.007-5.493 56.875 0.708 17.017 3.476 44.091 16.881 56.174 10.137 9.138 24.571 11.204 37.721 10.493 18.874-1.022 37.826-3.939 55.405-11.131 5.498-2.249 11.202-4.648 15.206-9.216 4.999-5.705 7.084-14.496 8.822-21.674 4.96-20.48 6.364-41.969 5.484-63l-2.347-29.103 12.854 35.909 20.942 50.574 6.794 16.383c1.169 2.991 1.825 6.74 3.372 9.508 0.417 0.746 0.962 1.249 1.631 1.755l0.372 0.25-7.702 48.848-1.783 10.971c-6.345-3.878-11.892-9.032-18.308-12.724-5.476-3.15-12.427-5.133-18.408-7.146-8.046 1.172-14.45 4.196-21.865 7.301l-16.799 6.687c-2.78 1.114-6.463 3.255-9.311 3.717-1.67 0.271-4.162-0.554-5.879-0.775-4.287-0.554-8.334-0.629-12.275-2.66-4.493-4.045-12.327-5.576-18.054-7.213z" fill="url(#a)"/> <path transform="scale(1.8476)" d="m459.89 926.84c-2.935-15.031-4.045-29.491-3.496-44.81l41.995 53.709-1.783 10.971c-6.345-3.878-11.892-9.032-18.308-12.724-5.476-3.15-12.427-5.133-18.408-7.146z" fill="#FEFEFE"/> <path transform="scale(1.8476)" d="m99.978 648.64 21 17.016 58.24 50.042c2.742 2.214 7.774 7.685 10.849 8.204l0.754-0.786 3.66-5.128c7.621-6.128 18.315-4.43 27.549-4.4-3.407 2.542-7.598 5.576-8.257 10.076-1.428 9.747 3.214 22.168 4.986 31.982l5.978 33.445c1.569 8.782 2.759 17.729 5.926 26.115l-19.772 47.256-4.29 12.121-31.618-36.764-26.661-22.815c-2.145-3.058-6.79-5.495-9.85-7.536l-30.246-18.254-8.9125-87.842 0.665-52.732z" fill="#4DD7CC"/> <path transform="scale(1.8476)" d="m194.48 717.98c7.621-6.128 18.315-4.43 27.549-4.4-3.407 2.542-7.598 5.576-8.257 10.076-1.428 9.747 3.214 22.168 4.986 31.982l5.978 33.445c1.569 8.782 2.759 17.729 5.926 26.115l-19.772 47.256-19.108-107.4c-2.209-9.934-5.723-21.317-1.716-31.164l0.754-0.786 3.66-5.128z" fill="#0F156E"/> <path transform="scale(1.8476)" d="m99.978 648.64 21 17.016 58.24 50.042c2.742 2.214 7.774 7.685 10.849 8.204-4.007 9.847-0.493 21.23 1.716 31.164l-92.47-53.694 0.665-52.732z" fill="#30BBBB"/> </svg>